<svg width="622" height="629" viewBox="0 0 622 629" fill="none" xmlns="http://www.w3.org/2000/svg">
<path d="M26.0228 420.933C49.5707 473.615 87.8629 518.356 136.278 549.756C184.693 581.156 241.161 597.872 298.866 597.887C356.572 597.902 413.048 581.215 461.479 549.84C509.91 518.465 548.226 473.744 571.801 421.074L522.589 399.047C503.266 442.218 471.861 478.873 432.165 504.589C392.469 530.305 346.178 543.982 298.88 543.97C251.582 543.958 205.298 530.257 165.616 504.52C125.933 478.784 94.5467 442.112 75.2459 398.931L26.0228 420.933Z" fill="#48146C"/>
<circle cx="298.943" cy="313.037" r="214.83" fill="#48146C"/>
<circle cx="298.944" cy="313.036" r="193.785" fill="white"/>
<g filter="url(#filter0_d_1221_3934)">
<path d="M281.341 368.449C314.001 387.305 345.485 401.322 370.049 408.703C382.299 412.384 393.054 414.484 401.473 414.609C409.489 414.727 417.153 413.059 420.615 407.063C424.077 401.067 421.689 393.596 417.578 386.713C413.261 379.484 406.064 371.22 396.752 362.452C378.078 344.87 350.196 324.612 317.537 305.756C284.877 286.9 253.393 272.883 228.829 265.502C216.579 261.821 205.824 259.72 197.405 259.596C189.389 259.478 181.725 261.145 178.263 267.141C174.801 273.138 177.189 280.608 181.3 287.491C185.617 294.721 192.814 302.984 202.126 311.752C220.8 329.335 248.682 349.593 281.341 368.449Z" stroke="white" stroke-width="8.33108" shape-rendering="crispEdges"/>
</g>
<g filter="url(#filter1_d_1221_3934)">
<path d="M317.537 368.449C350.196 349.593 378.078 329.335 396.752 311.753C406.065 302.985 413.261 294.721 417.578 287.492C421.689 280.609 424.077 273.138 420.615 267.142C417.153 261.146 409.489 259.478 401.473 259.596C393.054 259.721 382.299 261.821 370.049 265.502C345.485 272.883 314.001 286.9 281.341 305.756C248.682 324.612 220.8 344.87 202.126 362.452C192.814 371.22 185.617 379.484 181.3 386.713C177.189 393.596 174.801 401.067 178.263 407.063C181.725 413.059 189.389 414.727 197.405 414.609C205.824 414.484 216.579 412.384 228.829 408.703C253.393 401.322 284.877 387.305 317.537 368.449Z" stroke="white" stroke-width="8.33108" shape-rendering="crispEdges"/>
</g>
<path d="M317.12 367.727C349.741 348.894 377.566 328.673 396.181 311.146C405.469 302.401 412.603 294.198 416.863 287.064C420.958 280.207 423.105 273.121 419.893 267.558C416.682 261.995 409.471 260.311 401.485 260.429C393.177 260.552 382.506 262.629 370.289 266.3C345.803 273.657 314.379 287.644 281.758 306.478C249.137 325.311 221.312 345.532 202.697 363.059C193.409 371.804 186.276 380.007 182.015 387.141C177.92 393.998 175.773 401.084 178.985 406.647C182.196 412.21 189.407 413.894 197.393 413.776C205.701 413.653 216.372 411.576 228.589 407.905C253.075 400.548 284.5 386.561 317.12 367.727Z" stroke="#36CDE0" stroke-width="6.66487"/>
<path d="M281.758 367.727C314.378 386.561 345.803 400.548 370.289 407.905C382.506 411.576 393.177 413.653 401.485 413.776C409.471 413.893 416.682 412.209 419.893 406.647C423.105 401.084 420.958 393.998 416.863 387.14C412.603 380.006 405.469 371.803 396.181 363.059C377.566 345.532 349.741 325.311 317.12 306.477C284.499 287.644 253.075 273.657 228.589 266.299C216.372 262.629 205.701 260.552 197.393 260.429C189.407 260.311 182.196 261.995 178.985 267.558C175.773 273.121 177.92 280.207 182.015 287.064C186.275 294.198 193.409 302.401 202.697 311.146C221.312 328.672 249.137 348.894 281.758 367.727Z" stroke="#36CDE0" stroke-width="6.66487"/>
<circle cx="232.976" cy="336.41" r="21.037" fill="#48146C"/>
<circle cx="299.593" cy="294.336" r="21.037" fill="#48146C"/>
<circle cx="367.963" cy="336.41" r="21.037" fill="#48146C"/>
<circle cx="299.256" cy="378.678" r="21.037" fill="#48146C"/>
<g filter="url(#filter2_d_1221_3934)">
<path d="M238.546 323.791C237.73 324.474 236.235 326.21 236.381 328.59C236.513 330.738 237.151 331.903 237.244 332.242" stroke="white" stroke-width="2.16944" stroke-linecap="round"/>
<path d="M238.546 323.791C237.73 324.474 236.235 326.21 236.381 328.59C236.513 330.738 237.151 331.903 237.244 332.242" stroke="white" stroke-width="2.16944" stroke-linecap="round"/>
</g>
<g filter="url(#filter3_f_1221_3934)">
<path d="M238.969 323.56C238.153 324.242 236.435 326.21 236.583 328.59C236.714 330.738 237.352 331.904 237.445 332.242" stroke="white" stroke-width="0.591664" stroke-linecap="round"/>
<path d="M238.969 323.56C238.153 324.242 236.435 326.21 236.583 328.59C236.714 330.738 237.352 331.904 237.445 332.242" stroke="white" stroke-width="0.591664" stroke-linecap="round"/>
</g>
<g filter="url(#filter4_dd_1221_3934)">
<path d="M227.635 349.098C228.452 348.415 229.946 346.679 229.8 344.299C229.668 342.152 229.03 340.985 228.937 340.647" stroke="white" stroke-width="2.16944" stroke-linecap="round"/>
<path d="M227.635 349.098C228.452 348.415 229.946 346.679 229.8 344.299C229.668 342.152 229.03 340.985 228.937 340.647" stroke="white" stroke-width="2.16944" stroke-linecap="round"/>
</g>
<g filter="url(#filter5_f_1221_3934)">
<path d="M227.842 349.098C228.659 348.415 230.153 346.679 230.008 344.299C229.875 342.152 229.237 340.985 229.145 340.647" stroke="white" stroke-width="0.591664" stroke-linecap="round"/>
</g>
<path d="M238.593 325.277C238.918 324.678 239.47 324.353 239.47 324.353L242.216 327.091C242.23 327.105 242.241 327.122 242.249 327.14C242.256 327.158 242.26 327.177 242.26 327.196C242.26 327.216 242.256 327.235 242.249 327.253C242.241 327.271 242.23 327.288 242.216 327.301L241.52 327.997C241.493 328.024 241.455 328.04 241.416 328.04C241.377 328.04 241.339 328.024 241.311 327.997L238.593 325.277Z" fill="white"/>
<path d="M238.593 325.277C238.918 324.678 239.47 324.353 239.47 324.353L242.216 327.091C242.23 327.105 242.241 327.122 242.249 327.14C242.256 327.158 242.26 327.177 242.26 327.196C242.26 327.216 242.256 327.235 242.249 327.253C242.241 327.271 242.23 327.288 242.216 327.301L241.52 327.997C241.493 328.024 241.455 328.04 241.416 328.04C241.377 328.04 241.339 328.024 241.311 327.997L238.593 325.277Z" fill="white"/>
<path d="M232.119 331.647C232.335 331.271 232.648 330.959 233.024 330.743L235.822 333.539C235.836 333.553 235.847 333.569 235.854 333.587C235.862 333.605 235.865 333.625 235.865 333.644C235.865 333.664 235.862 333.683 235.854 333.701C235.847 333.719 235.836 333.736 235.822 333.749L235.126 334.445C235.098 334.472 235.06 334.488 235.021 334.488C234.982 334.488 234.944 334.472 234.916 334.445L232.119 331.647Z" fill="white"/>
<path d="M232.119 331.647C232.335 331.271 232.648 330.959 233.024 330.743L235.822 333.539C235.836 333.553 235.847 333.569 235.854 333.587C235.862 333.605 235.865 333.625 235.865 333.644C235.865 333.664 235.862 333.683 235.854 333.701C235.847 333.719 235.836 333.736 235.822 333.749L235.126 334.445C235.098 334.472 235.06 334.488 235.021 334.488C234.982 334.488 234.944 334.472 234.916 334.445L232.119 331.647Z" fill="white"/>
<path d="M232.119 331.647C232.335 331.271 232.648 330.959 233.024 330.743L235.822 333.539C235.836 333.553 235.847 333.569 235.854 333.587C235.862 333.605 235.865 333.625 235.865 333.644C235.865 333.664 235.862 333.683 235.854 333.701C235.847 333.719 235.836 333.736 235.822 333.749L235.126 334.445C235.098 334.472 235.06 334.488 235.021 334.488C234.982 334.488 234.944 334.472 234.916 334.445L232.119 331.647Z" fill="white"/>
<path d="M230.017 333.728C230.343 333.128 230.923 332.823 230.923 332.823L233.72 335.62C233.748 335.648 233.763 335.685 233.763 335.725C233.763 335.764 233.748 335.801 233.72 335.829L233.024 336.525C232.996 336.553 232.959 336.569 232.919 336.569C232.88 336.569 232.843 336.553 232.815 336.525L230.017 333.728Z" fill="white"/>
<path d="M227.821 335.854C228.147 335.254 228.727 334.949 228.727 334.949L231.524 337.746C231.552 337.774 231.567 337.812 231.567 337.851C231.567 337.89 231.552 337.928 231.524 337.955L230.828 338.652C230.8 338.679 230.763 338.695 230.723 338.695C230.684 338.695 230.647 338.679 230.619 338.652L227.821 335.854Z" fill="white"/>
<path d="M223.365 340.793C224.228 340.358 224.86 340.49 224.86 340.49L226.862 342.474C226.889 342.501 226.905 342.539 226.905 342.578C226.905 342.617 226.889 342.655 226.862 342.683L226.167 343.379C226.139 343.407 226.101 343.422 226.062 343.422C226.023 343.422 225.985 343.407 225.957 343.379L223.364 340.793H223.365Z" fill="white"/>
<path d="M221.034 342.692C221.359 342.092 221.829 341.69 221.829 341.69L224.738 344.584C224.765 344.612 224.781 344.649 224.781 344.688C224.781 344.728 224.765 344.765 224.738 344.793L224.041 345.489C224.013 345.517 223.975 345.532 223.936 345.532C223.897 345.532 223.859 345.517 223.832 345.489L221.034 342.692Z" fill="white"/>
<path d="M237.421 328.329C237.383 327.604 237.682 326.88 237.682 326.88L240.033 329.23C240.047 329.244 240.058 329.26 240.066 329.278C240.073 329.296 240.077 329.316 240.077 329.335C240.077 329.355 240.073 329.374 240.066 329.392C240.058 329.41 240.047 329.427 240.033 329.44L239.337 330.136C239.309 330.163 239.272 330.179 239.233 330.179C239.193 330.179 239.156 330.163 239.128 330.136L237.422 328.329H237.421Z" fill="white"/>
<path d="M245.223 330.099C245.223 330.099 244.912 330.769 244.336 331.017L241.52 328.206C241.506 328.193 241.495 328.176 241.488 328.158C241.48 328.14 241.477 328.121 241.477 328.101C241.477 328.082 241.48 328.062 241.488 328.044C241.495 328.026 241.506 328.01 241.52 327.996L242.217 327.3C242.244 327.272 242.282 327.257 242.321 327.257C242.36 327.257 242.398 327.272 242.426 327.3L245.223 330.099Z" fill="white"/>
<path d="M245.223 330.099C245.223 330.099 244.912 330.769 244.336 331.017L241.52 328.206C241.506 328.193 241.495 328.176 241.488 328.158C241.48 328.14 241.477 328.121 241.477 328.101C241.477 328.082 241.48 328.062 241.488 328.044C241.495 328.026 241.506 328.01 241.52 327.996L242.217 327.3C242.244 327.272 242.282 327.257 242.321 327.257C242.36 327.257 242.398 327.272 242.426 327.3L245.223 330.099Z" fill="white"/>
<path d="M245.223 330.099C245.223 330.099 244.912 330.769 244.336 331.017L241.52 328.206C241.506 328.193 241.495 328.176 241.488 328.158C241.48 328.14 241.477 328.121 241.477 328.101C241.477 328.082 241.48 328.062 241.488 328.044C241.495 328.026 241.506 328.01 241.52 327.996L242.217 327.3C242.244 327.272 242.282 327.257 242.321 327.257C242.36 327.257 242.398 327.272 242.426 327.3L245.223 330.099Z" fill="white"/>
<path d="M237.367 335.147C237.367 335.147 237.722 336.156 237.1 336.668L235.123 334.655C235.096 334.627 235.08 334.589 235.08 334.55C235.08 334.511 235.096 334.473 235.123 334.446L235.819 333.752C235.832 333.738 235.849 333.727 235.867 333.719C235.885 333.712 235.905 333.708 235.924 333.708C235.944 333.708 235.964 333.713 235.982 333.72C236 333.728 236.016 333.739 236.03 333.753L237.367 335.147Z" fill="white"/>
<path d="M237.367 335.147C237.367 335.147 237.722 336.156 237.1 336.668L235.123 334.655C235.096 334.627 235.08 334.589 235.08 334.55C235.08 334.511 235.096 334.473 235.123 334.446L235.819 333.752C235.832 333.738 235.849 333.727 235.867 333.719C235.885 333.712 235.905 333.708 235.924 333.708C235.944 333.708 235.964 333.713 235.982 333.72C236 333.728 236.016 333.739 236.03 333.753L237.367 335.147Z" fill="white"/>
<path d="M234.464 340.686C234.464 340.686 234.395 341.264 233.773 341.775L230.824 338.849C230.81 338.835 230.799 338.819 230.792 338.801C230.784 338.782 230.78 338.763 230.78 338.744C230.78 338.724 230.784 338.705 230.792 338.687C230.799 338.669 230.81 338.652 230.824 338.639L231.519 337.943C231.547 337.916 231.585 337.9 231.624 337.9C231.663 337.9 231.701 337.916 231.728 337.943L234.464 340.685V340.686Z" fill="white"/>
<path d="M234.464 340.686C234.464 340.686 234.395 341.264 233.773 341.775L230.824 338.849C230.81 338.835 230.799 338.819 230.792 338.801C230.784 338.782 230.78 338.763 230.78 338.744C230.78 338.724 230.784 338.705 230.792 338.687C230.799 338.669 230.81 338.652 230.824 338.639L231.519 337.943C231.547 337.916 231.585 337.9 231.624 337.9C231.663 337.9 231.701 337.916 231.728 337.943L234.464 340.685V340.686Z" fill="white"/>
<path d="M236.659 338.56C236.659 338.56 236.59 339.136 235.97 339.649L233.02 336.722C233.006 336.709 232.995 336.692 232.987 336.674C232.98 336.656 232.976 336.637 232.976 336.618C232.976 336.598 232.98 336.579 232.987 336.561C232.994 336.543 233.005 336.526 233.019 336.512L233.714 335.817C233.742 335.789 233.78 335.774 233.819 335.774C233.858 335.774 233.896 335.789 233.923 335.817L236.659 338.56Z" fill="white"/>
<path d="M236.659 338.56C236.659 338.56 236.59 339.136 235.97 339.649L233.02 336.722C233.006 336.709 232.995 336.692 232.987 336.674C232.98 336.656 232.976 336.637 232.976 336.618C232.976 336.598 232.98 336.579 232.987 336.561C232.994 336.543 233.005 336.526 233.019 336.512L233.714 335.817C233.742 335.789 233.78 335.774 233.819 335.774C233.858 335.774 233.896 335.789 233.923 335.817L236.659 338.56Z" fill="white"/>
<path d="M228.715 344.368C228.715 344.368 228.83 345.208 228.514 345.94L226.166 343.59C226.138 343.562 226.122 343.525 226.122 343.485C226.122 343.446 226.138 343.409 226.166 343.381L226.862 342.685C226.889 342.657 226.927 342.641 226.966 342.641C227.005 342.641 227.043 342.657 227.071 342.685L228.715 344.368Z" fill="white"/>
<path d="M228.715 344.368C228.715 344.368 228.83 345.208 228.514 345.94L226.166 343.59C226.138 343.562 226.122 343.525 226.122 343.485C226.122 343.446 226.138 343.409 226.166 343.381L226.862 342.685C226.889 342.657 226.927 342.641 226.966 342.641C227.005 342.641 227.043 342.657 227.071 342.685L228.715 344.368Z" fill="white"/>
<path d="M227.676 347.523C227.676 347.523 227.423 347.918 226.804 348.431L224.037 345.697C224.023 345.683 224.012 345.667 224.004 345.649C223.997 345.631 223.993 345.612 223.993 345.592C223.993 345.572 223.997 345.553 224.004 345.535C224.012 345.517 224.023 345.501 224.037 345.487L224.732 344.792C224.76 344.764 224.797 344.749 224.836 344.749C224.876 344.749 224.913 344.764 224.941 344.792L227.676 347.523Z" fill="white"/>
<path d="M227.676 347.523C227.676 347.523 227.423 347.918 226.804 348.431L224.037 345.697C224.023 345.683 224.012 345.667 224.004 345.649C223.997 345.631 223.993 345.612 223.993 345.592C223.993 345.572 223.997 345.553 224.004 345.535C224.012 345.517 224.023 345.501 224.037 345.487L224.732 344.792C224.76 344.764 224.797 344.749 224.836 344.749C224.876 344.749 224.913 344.764 224.941 344.792L227.676 347.523Z" fill="white"/>
<path d="M242.738 331.936C242.738 331.936 242.386 332.306 241.298 332.306L239.334 330.343C239.306 330.316 239.291 330.278 239.291 330.239C239.291 330.2 239.306 330.162 239.334 330.134L240.03 329.438C240.058 329.41 240.096 329.395 240.135 329.395C240.174 329.395 240.212 329.41 240.239 329.438L242.738 331.936Z" fill="white"/>
<path d="M242.738 331.936C242.738 331.936 242.386 332.306 241.298 332.306L239.334 330.343C239.306 330.316 239.291 330.278 239.291 330.239C239.291 330.2 239.306 330.162 239.334 330.134L240.03 329.438C240.058 329.41 240.096 329.395 240.135 329.395C240.174 329.395 240.212 329.41 240.239 329.438L242.738 331.936Z" fill="white"/>
<path d="M242.738 331.936C242.738 331.936 242.386 332.306 241.298 332.306L239.334 330.343C239.306 330.316 239.291 330.278 239.291 330.239C239.291 330.2 239.306 330.162 239.334 330.134L240.03 329.438C240.058 329.41 240.096 329.395 240.135 329.395C240.174 329.395 240.212 329.41 240.239 329.438L242.738 331.936Z" fill="white"/>
<g filter="url(#filter6_d_1221_3934)">
<path d="M220.305 341.888C221.022 340.994 222.82 339.31 225.49 339.461C229.179 339.668 232.34 342.755 235.875 340.609C239.087 338.66 238.353 334.515 237.383 332.496" stroke="white" stroke-width="2.16944" stroke-linecap="round"/>
<path d="M220.305 341.888C221.022 340.994 222.82 339.31 225.49 339.461C229.179 339.668 232.34 342.755 235.875 340.609C239.087 338.66 238.353 334.515 237.383 332.496" stroke="white" stroke-width="2.16944" stroke-linecap="round"/>
</g>
<g filter="url(#filter7_f_1221_3934)">
<path d="M220.64 341.946C221.357 341.052 223.155 339.369 225.825 339.52C229.514 339.727 232.675 342.814 236.21 340.667C239.422 338.718 238.688 334.573 237.718 332.555" stroke="white" stroke-width="0.64097" stroke-linecap="round"/>
</g>
<g filter="url(#filter8_d_1221_3934)">
<path d="M246.749 331.619C246.838 331.507 246.904 331.38 246.944 331.243C246.984 331.106 246.996 330.963 246.98 330.821C246.965 330.68 246.921 330.542 246.853 330.418C246.784 330.293 246.692 330.183 246.581 330.094C246.469 330.004 246.342 329.938 246.205 329.898C246.068 329.859 245.925 329.846 245.783 329.862C245.642 329.877 245.504 329.921 245.38 329.989C245.255 330.058 245.145 330.15 245.055 330.262C244.431 331.041 242.935 332.405 240.779 332.283C240.059 332.244 239.324 332.027 238.514 331.717C238.173 331.588 237.837 331.447 237.484 331.301L237.277 331.215C236.856 331.041 236.413 330.86 235.963 330.701C235.063 330.384 234.067 330.13 232.999 330.169C231.909 330.208 230.81 330.554 229.707 331.333C227.916 332.598 227.208 334.516 227.064 336.295C227.004 337.07 227.038 337.85 227.165 338.617C227.631 338.725 228.08 338.859 228.51 338.999C228.869 339.117 229.225 339.243 229.568 339.365C229.271 338.431 229.155 337.448 229.227 336.47C229.336 335.113 229.849 333.889 230.958 333.106C231.731 332.559 232.425 332.36 233.079 332.336C233.757 332.311 234.457 332.471 235.242 332.748C235.632 332.886 236.029 333.045 236.447 333.219L236.644 333.302C236.997 333.448 237.367 333.602 237.739 333.744C238.621 334.082 239.602 334.39 240.656 334.45C243.839 334.629 245.939 332.627 246.749 331.62V331.619Z" fill="white"/>
</g>
<g filter="url(#filter9_f_1221_3934)">
<path d="M246.096 330.743C245.38 331.636 243.581 333.319 240.911 333.168C237.364 332.969 234.279 329.371 230.527 332.021C228.34 333.566 228.062 336.356 228.474 338.499" stroke="white" stroke-width="0.591664" stroke-linecap="round"/>
<path d="M246.096 330.743C245.38 331.636 243.581 333.319 240.911 333.168C237.364 332.969 234.279 329.371 230.527 332.021C228.34 333.566 228.062 336.356 228.474 338.499" stroke="white" stroke-width="0.591664" stroke-linecap="round"/>
</g>
<path d="M306.866 284.856C307.324 284.856 307.695 284.485 307.695 284.026C307.695 283.568 307.324 283.197 306.866 283.197C306.407 283.197 306.036 283.568 306.036 284.026C306.036 284.485 306.407 284.856 306.866 284.856Z" fill="white"/>
<path opacity="0.75" d="M289.356 298.283L302.293 285.346C302.313 285.326 302.331 285.296 302.348 285.266C302.486 285.031 302.5 284.806 302.478 284.509C302.441 284.005 302.56 283.733 302.804 283.551C303.126 283.309 304.243 283.359 306.331 285.447C308.42 287.536 308.468 288.65 308.226 288.973C308.044 289.217 307.772 289.334 307.268 289.299C306.971 289.277 306.746 289.29 306.511 289.428C306.479 289.446 306.451 289.464 306.431 289.484L293.494 302.421C291.717 304.198 290.02 303.927 288.943 302.85L288.936 302.843L288.929 302.835C287.848 301.756 287.578 300.06 289.356 298.283Z" fill="white"/>
<path opacity="0.39" d="M305.089 286.199C303.956 285.066 303.095 284.499 302.473 284.244C302.47 284.324 302.47 284.413 302.477 284.509C302.493 284.721 302.487 284.896 302.436 285.063C303 285.367 303.707 285.873 304.574 286.685C305.82 287.853 306.415 288.734 306.663 289.356C306.826 289.295 306.994 289.284 307.193 289.293C307.074 288.67 306.549 287.657 305.089 286.199Z" fill="white"/>
<path d="M296.963 290.702L289.399 298.256C287.555 300.099 287.788 301.822 288.86 302.894C289.932 303.964 291.651 304.203 293.5 302.355L305.482 290.44L296.963 290.702Z" fill="white"/>
<path d="M295.344 296.668C295.842 296.668 296.245 296.264 296.245 295.767C296.245 295.269 295.842 294.866 295.344 294.866C294.846 294.866 294.443 295.269 294.443 295.767C294.443 296.264 294.846 296.668 295.344 296.668Z" fill="white"/>
<path d="M304.517 289.507C304.985 289.507 305.365 289.127 305.365 288.659C305.365 288.191 304.985 287.812 304.517 287.812C304.049 287.812 303.67 288.191 303.67 288.659C303.67 289.127 304.049 289.507 304.517 289.507Z" fill="white"/>
<path opacity="0.69" d="M300.367 292.788C300.655 292.788 300.889 292.555 300.889 292.267C300.889 291.978 300.655 291.745 300.367 291.745C300.079 291.745 299.845 291.978 299.845 292.267C299.845 292.555 300.079 292.788 300.367 292.788Z" fill="white"/>
<path d="M309.015 284.589C309.228 284.589 309.401 284.416 309.401 284.203C309.401 283.989 309.228 283.816 309.015 283.816C308.801 283.816 308.628 283.989 308.628 284.203C308.628 284.416 308.801 284.589 309.015 284.589Z" fill="white"/>
<path d="M297.853 295.692C298.246 295.692 298.565 295.373 298.565 294.98C298.565 294.587 298.246 294.268 297.853 294.268C297.459 294.268 297.141 294.587 297.141 294.98C297.141 295.373 297.459 295.692 297.853 295.692Z" fill="white"/>
<path d="M298.672 293.221C298.823 293.221 298.946 293.098 298.946 292.947C298.946 292.795 298.823 292.673 298.672 292.673C298.52 292.673 298.398 292.795 298.398 292.947C298.398 293.098 298.52 293.221 298.672 293.221Z" fill="white"/>
<path opacity="0.6" d="M303.915 284.675C304.487 285.045 305.007 285.494 305.455 286.003" stroke="white" stroke-width="1.91208" stroke-miterlimit="10" stroke-linecap="round"/>
<path d="M305.486 290.426C305.336 290.557 304.85 290.645 303.572 290.844C302.893 290.951 302.064 291.058 301.111 291.136C298.125 291.383 296.112 290.976 297.306 290.488C298.266 290.096 301.674 290.182 303.807 290.249C304.836 290.283 305.603 290.324 305.486 290.426Z" fill="white"/>
<path opacity="0.6" d="M289.392 300.492C289.086 300.366 289.211 300.015 289.392 299.832L301.41 287.495C302.14 286.74 302.808 286.227 303.182 286.583C303.6 286.98 303.467 287.693 301.827 289.163L290.311 300.054C290.22 300.145 289.698 300.619 289.392 300.492Z" fill="white"/>
<g clip-path="url(#clip0_1221_3934)">
<path d="M377.821 342.961L374.975 340.132V329.252L373.631 326.78C373.532 326.591 373.383 326.433 373.201 326.323C373.019 326.213 372.81 326.155 372.597 326.155C372.384 326.155 372.175 326.213 371.993 326.323C371.811 326.433 371.662 326.591 371.563 326.78L370.3 329.257V335.481L359.613 324.845C359.531 324.763 359.426 324.707 359.313 324.684C359.199 324.661 359.081 324.673 358.974 324.717C358.866 324.762 358.775 324.837 358.711 324.934C358.647 325.031 358.613 325.144 358.613 325.26V329.982H359.881V330.917H358.613V334.657H359.881V335.592H358.613V339.478H359.881V340.413H358.613V343.376C358.613 343.531 358.675 343.679 358.784 343.789C358.894 343.898 359.043 343.96 359.198 343.96H377.406C377.522 343.961 377.636 343.927 377.733 343.862C377.829 343.798 377.905 343.707 377.949 343.6C377.994 343.492 378.005 343.374 377.983 343.261C377.96 343.147 377.904 343.042 377.821 342.961ZM363.288 339.332V334.037L368.588 339.332H363.288ZM373.807 340.565H371.469V339.145H373.807V340.565ZM373.807 338.227H371.469V329.544L372.603 327.341L373.807 329.55V338.227Z" fill="white"/>
</g>
<g clip-path="url(#clip1_1221_3934)">
<path d="M300.594 371.884L297.967 368.7C297.851 368.559 297.683 368.47 297.502 368.453C297.32 368.435 297.139 368.491 296.998 368.607L294.697 370.506L298.199 374.752L300.501 372.853C300.795 372.611 300.836 372.177 300.594 371.884Z" fill="white"/>
<path d="M307.462 383.271L303.216 379.768C303.216 379.768 301.584 381.903 299.804 383.962C298.45 385.528 295.65 385.472 294.073 383.895C292.496 382.318 292.44 379.518 294.006 378.164C296.065 376.384 298.2 374.751 298.2 374.751L294.697 370.505C294.697 370.505 291.205 373.183 290.189 374.207C286.461 377.962 286.448 384.037 290.19 387.778C293.931 391.52 300.005 391.506 303.76 387.779C304.784 386.762 307.462 383.271 307.462 383.271Z" fill="white"/>
<path d="M306.084 377.373L309.268 380.001C309.561 380.243 309.603 380.676 309.361 380.97L307.462 383.271L303.216 379.768L305.115 377.467C305.172 377.397 305.243 377.339 305.323 377.297C305.403 377.254 305.49 377.228 305.58 377.219C305.67 377.211 305.761 377.22 305.847 377.246C305.934 377.273 306.014 377.316 306.084 377.373Z" fill="white"/>
<path d="M303.49 369.092L302.293 367.869L303.612 366.577C303.617 366.573 303.615 366.567 303.619 366.563C303.629 366.55 303.633 366.536 303.637 366.52C303.642 366.504 303.646 366.49 303.644 366.474C303.643 366.468 303.647 366.463 303.647 366.458C303.644 366.446 303.633 366.442 303.627 366.432C303.622 366.421 303.624 366.408 303.615 366.399C303.611 366.395 303.605 366.397 303.6 366.393C303.587 366.382 303.572 366.379 303.555 366.374C303.54 366.37 303.527 366.366 303.512 366.367C303.506 366.368 303.501 366.363 303.495 366.365L299.994 367.221C299.972 367.227 299.952 367.238 299.936 367.253C299.92 367.269 299.909 367.288 299.902 367.309C299.896 367.331 299.896 367.353 299.902 367.375C299.907 367.397 299.918 367.416 299.934 367.432L301.132 368.655L299.812 369.948C299.808 369.952 299.81 369.958 299.806 369.962C299.795 369.975 299.792 369.989 299.787 370.006C299.782 370.022 299.778 370.035 299.78 370.051C299.781 370.057 299.776 370.062 299.778 370.068C299.782 370.085 299.793 370.097 299.803 370.11C299.807 370.115 299.806 370.121 299.81 370.126L299.817 370.133C299.846 370.158 299.882 370.163 299.917 370.158C299.922 370.157 299.925 370.162 299.93 370.161L303.43 369.304C303.451 369.298 303.471 369.287 303.487 369.271C303.503 369.256 303.514 369.236 303.52 369.215C303.527 369.193 303.527 369.171 303.522 369.149C303.517 369.128 303.506 369.108 303.49 369.092ZM311.747 376.51L310.346 375.527L311.408 374.015C311.411 374.01 311.408 374.005 311.411 374C311.419 373.985 311.42 373.972 311.421 373.954C311.423 373.937 311.425 373.924 311.42 373.907C311.419 373.902 311.422 373.897 311.419 373.892C311.414 373.881 311.403 373.878 311.396 373.869C311.389 373.86 311.388 373.847 311.378 373.84C311.373 373.837 311.367 373.839 311.362 373.837C311.346 373.828 311.331 373.828 311.314 373.826C311.298 373.825 311.284 373.824 311.27 373.828C311.264 373.829 311.259 373.826 311.254 373.828L307.968 375.31C307.948 375.319 307.931 375.333 307.918 375.351C307.905 375.37 307.897 375.391 307.895 375.413C307.893 375.435 307.897 375.457 307.906 375.477C307.915 375.497 307.93 375.515 307.948 375.528L309.349 376.512L308.288 378.023C308.285 378.028 308.287 378.033 308.285 378.038C308.276 378.053 308.276 378.067 308.274 378.085C308.273 378.101 308.271 378.115 308.276 378.131C308.277 378.136 308.274 378.142 308.276 378.147C308.284 378.163 308.297 378.173 308.31 378.184C308.314 378.188 308.314 378.194 308.319 378.198L308.327 378.203C308.343 378.212 308.36 378.217 308.378 378.218C308.396 378.219 308.414 378.215 308.43 378.209C308.434 378.207 308.439 378.211 308.443 378.209L311.727 376.727C311.748 376.718 311.765 376.704 311.778 376.685C311.791 376.667 311.799 376.646 311.801 376.624C311.802 376.602 311.798 376.58 311.789 376.56C311.779 376.541 311.765 376.523 311.747 376.51Z" fill="white"/>
</g>
<g filter="url(#filter10_d_1221_3934)">
<path d="M230.538 200.759H235.702V221.13C235.702 223.888 235.496 225.968 235.085 227.373C234.691 228.777 234.195 229.95 233.595 230.892C233.013 231.817 232.294 232.648 231.437 233.384C228.595 235.833 224.878 237.058 220.288 237.058C215.613 237.058 211.862 235.842 209.036 233.41C208.18 232.656 207.452 231.817 206.853 230.892C206.271 229.95 205.783 228.803 205.389 227.45C205.012 226.097 204.823 223.973 204.823 221.079V200.759H209.987V221.13C209.987 224.504 210.372 226.85 211.143 228.169C211.914 229.488 213.087 230.55 214.662 231.355C216.238 232.142 218.096 232.536 220.237 232.536C223.285 232.536 225.769 231.74 227.687 230.147C228.697 229.291 229.425 228.28 229.87 227.116C230.316 225.951 230.538 223.956 230.538 221.13V200.759ZM248.079 200.759H253.217V231.971H269.375V236.646H248.079V200.759ZM288.02 221.593L284.116 219.229C281.667 217.739 279.92 216.275 278.875 214.836C277.848 213.381 277.334 211.711 277.334 209.827C277.334 207.001 278.31 204.706 280.262 202.942C282.232 201.178 284.784 200.296 287.918 200.296C290.915 200.296 293.663 201.135 296.164 202.814V208.645C293.578 206.162 290.795 204.92 287.815 204.92C286.137 204.92 284.758 205.314 283.679 206.102C282.6 206.873 282.061 207.866 282.061 209.082C282.061 210.161 282.454 211.171 283.242 212.113C284.03 213.055 285.306 214.04 287.07 215.068L291 217.38C295.385 219.983 297.577 223.305 297.577 227.347C297.577 230.224 296.609 232.562 294.674 234.36C292.756 236.158 290.255 237.058 287.173 237.058C283.628 237.058 280.399 235.97 277.488 233.795V227.27C280.262 230.781 283.473 232.536 287.121 232.536C288.731 232.536 290.067 232.091 291.129 231.2C292.208 230.293 292.747 229.162 292.747 227.809C292.747 225.617 291.172 223.545 288.02 221.593ZM308.49 200.759H328.835V205.331H313.627V216.275H328.322V220.873H313.627V232.022H329.323V236.595H308.49V200.759ZM348.945 221.593L345.04 219.229C342.591 217.739 340.844 216.275 339.8 214.836C338.772 213.381 338.258 211.711 338.258 209.827C338.258 207.001 339.234 204.706 341.187 202.942C343.156 201.178 345.708 200.296 348.842 200.296C351.839 200.296 354.588 201.135 357.088 202.814V208.645C354.502 206.162 351.719 204.92 348.739 204.92C347.061 204.92 345.682 205.314 344.603 206.102C343.524 206.873 342.985 207.866 342.985 209.082C342.985 210.161 343.379 211.171 344.167 212.113C344.954 213.055 346.23 214.04 347.994 215.068L351.925 217.38C356.309 219.983 358.501 223.305 358.501 227.347C358.501 230.224 357.534 232.562 355.598 234.36C353.68 236.158 351.18 237.058 348.097 237.058C344.552 237.058 341.324 235.97 338.412 233.795V227.27C341.187 230.781 344.398 232.536 348.046 232.536C349.656 232.536 350.991 232.091 352.053 231.2C353.132 230.293 353.672 229.162 353.672 227.809C353.672 225.617 352.096 223.545 348.945 221.593ZM380.871 200.553H384.494L400.549 236.646H395.283L390.505 226.011H375.245L370.724 236.646H365.458L380.871 200.553ZM388.398 221.438L382.618 208.44L377.249 221.438H388.398Z" fill="black"/>
<path d="M230.538 200.759V199.005H228.785V200.759H230.538ZM235.702 200.759H237.456V199.005H235.702V200.759ZM235.085 227.373L233.402 226.88L233.399 226.89L233.397 226.899L235.085 227.373ZM233.595 230.892L232.116 229.951L232.111 229.958L233.595 230.892ZM231.437 233.384L230.294 232.054L230.293 232.055L231.437 233.384ZM209.036 233.41L207.878 234.726L207.885 234.733L207.893 234.739L209.036 233.41ZM206.853 230.892L205.361 231.814L205.371 231.83L205.381 231.846L206.853 230.892ZM205.389 227.45L203.699 227.92L203.702 227.93L203.705 227.94L205.389 227.45ZM204.823 200.759V199.005H203.07V200.759H204.823ZM209.987 200.759H211.741V199.005H209.987V200.759ZM214.662 231.355L213.865 232.916L213.871 232.92L213.878 232.923L214.662 231.355ZM227.687 230.147L228.807 231.496L228.814 231.491L228.821 231.485L227.687 230.147ZM230.538 202.512H235.702V199.005H230.538V202.512ZM233.948 200.759V221.13H237.456V200.759H233.948ZM233.948 221.13C233.948 223.84 233.742 225.72 233.402 226.88L236.768 227.865C237.251 226.217 237.456 223.935 237.456 221.13H233.948ZM233.397 226.899C233.036 228.186 232.6 229.19 232.116 229.951L235.075 231.834C235.79 230.71 236.347 229.368 236.774 227.846L233.397 226.899ZM232.111 229.958C231.625 230.73 231.022 231.428 230.294 232.054L232.581 234.714C233.565 233.867 234.401 232.904 235.079 231.827L232.111 229.958ZM230.293 232.055C227.835 234.173 224.556 235.304 220.288 235.304V238.811C225.201 238.811 229.354 237.493 232.582 234.713L230.293 232.055ZM220.288 235.304C215.923 235.304 212.613 234.174 210.18 232.08L207.893 234.739C211.111 237.509 215.303 238.811 220.288 238.811V235.304ZM210.195 232.093C209.455 231.442 208.834 230.724 208.325 229.938L205.381 231.846C206.071 232.91 206.905 233.87 207.878 234.726L210.195 232.093ZM208.345 229.97C207.865 229.193 207.433 228.2 207.072 226.96L203.705 227.94C204.132 229.406 204.677 230.707 205.361 231.814L208.345 229.97ZM207.078 226.979C206.769 225.868 206.577 223.945 206.577 221.079H203.07C203.07 224.001 203.255 226.325 203.699 227.92L207.078 226.979ZM206.577 221.079V200.759H203.07V221.079H206.577ZM204.823 202.512H209.987V199.005H204.823V202.512ZM208.233 200.759V221.13H211.741V200.759H208.233ZM208.233 221.13C208.233 224.523 208.601 227.294 209.629 229.054L212.657 227.284C212.144 226.406 211.741 224.485 211.741 221.13H208.233ZM209.629 229.054C210.594 230.706 212.039 231.983 213.865 232.916L215.46 229.793C214.135 229.116 213.233 228.27 212.657 227.284L209.629 229.054ZM213.878 232.923C215.744 233.856 217.882 234.29 220.237 234.29V230.783C218.311 230.783 216.732 230.429 215.447 229.786L213.878 232.923ZM220.237 234.29C223.6 234.29 226.509 233.405 228.807 231.496L226.566 228.798C225.029 230.075 222.971 230.783 220.237 230.783V234.29ZM228.821 231.485C230.042 230.45 230.951 229.2 231.508 227.742L228.232 226.489C227.899 227.361 227.353 228.132 226.553 228.809L228.821 231.485ZM231.508 227.742C232.079 226.25 232.292 223.967 232.292 221.13H228.785C228.785 223.945 228.552 225.653 228.232 226.489L231.508 227.742ZM232.292 221.13V200.759H228.785V221.13H232.292ZM248.079 200.759V199.005H246.325V200.759H248.079ZM253.217 200.759H254.97V199.005H253.217V200.759ZM253.217 231.971H251.463V233.725H253.217V231.971ZM269.375 231.971H271.129V230.217H269.375V231.971ZM269.375 236.646V238.4H271.129V236.646H269.375ZM248.079 236.646H246.325V238.4H248.079V236.646ZM248.079 202.512H253.217V199.005H248.079V202.512ZM251.463 200.759V231.971H254.97V200.759H251.463ZM253.217 233.725H269.375V230.217H253.217V233.725ZM267.621 231.971V236.646H271.129V231.971H267.621ZM269.375 234.893H248.079V238.4H269.375V234.893ZM249.833 236.646V200.759H246.325V236.646H249.833ZM288.02 221.593L288.944 220.102L288.936 220.097L288.928 220.092L288.02 221.593ZM284.116 219.229L283.204 220.727L283.208 220.73L284.116 219.229ZM278.875 214.836L277.442 215.848L277.449 215.857L277.456 215.867L278.875 214.836ZM280.262 202.942L279.092 201.636L279.087 201.641L280.262 202.942ZM296.164 202.814H297.918V201.879L297.141 201.358L296.164 202.814ZM296.164 208.645L294.949 209.91L297.918 212.761V208.645H296.164ZM283.679 206.102L284.698 207.529L284.706 207.524L284.713 207.518L283.679 206.102ZM287.07 215.068L287.959 213.556L287.953 213.552L287.07 215.068ZM291 217.38L291.896 215.872L291.89 215.868L291 217.38ZM294.674 234.36L293.48 233.075L293.474 233.081L294.674 234.36ZM277.488 233.795H275.734V234.674L276.438 235.2L277.488 233.795ZM277.488 227.27L278.864 226.183L275.734 222.222V227.27H277.488ZM291.129 231.2L292.256 232.544L292.258 232.542L291.129 231.2ZM288.928 220.092L285.024 217.729L283.208 220.73L287.112 223.093L288.928 220.092ZM285.027 217.731C282.67 216.297 281.144 214.976 280.294 213.806L277.456 215.867C278.695 217.574 280.664 219.182 283.204 220.727L285.027 217.731ZM280.308 213.825C279.501 212.683 279.087 211.371 279.087 209.827H275.58C275.58 212.051 276.194 214.079 277.442 215.848L280.308 213.825ZM279.087 209.827C279.087 207.456 279.883 205.648 281.438 204.244L279.087 201.641C276.737 203.764 275.58 206.546 275.58 209.827H279.087ZM281.432 204.249C283.022 202.825 285.131 202.05 287.918 202.05V198.543C284.436 198.543 281.441 199.532 279.092 201.636L281.432 204.249ZM287.918 202.05C290.565 202.05 292.974 202.785 295.187 204.27L297.141 201.358C294.353 199.486 291.265 198.543 287.918 198.543V202.05ZM294.41 202.814V208.645H297.918V202.814H294.41ZM297.379 207.38C294.536 204.651 291.337 203.167 287.815 203.167V206.674C290.253 206.674 292.619 207.673 294.949 209.91L297.379 207.38ZM287.815 203.167C285.861 203.167 284.093 203.628 282.645 204.686L284.713 207.518C285.422 207 286.412 206.674 287.815 206.674V203.167ZM282.66 204.675C281.168 205.74 280.307 207.242 280.307 209.082H283.814C283.814 208.49 284.032 208.005 284.698 207.529L282.66 204.675ZM280.307 209.082C280.307 210.629 280.884 212.027 281.897 213.238L284.587 210.988C284.025 210.316 283.814 209.693 283.814 209.082H280.307ZM281.897 213.238C282.873 214.406 284.348 215.512 286.187 216.583L287.953 213.552C286.264 212.568 285.187 211.705 284.587 210.988L281.897 213.238ZM286.181 216.579L290.111 218.891L291.89 215.868L287.959 213.556L286.181 216.579ZM290.105 218.888C294.118 221.27 295.823 224.091 295.823 227.347H299.331C299.331 222.52 296.651 218.695 291.896 215.872L290.105 218.888ZM295.823 227.347C295.823 229.785 295.024 231.641 293.48 233.075L295.868 235.645C298.194 233.483 299.331 230.663 299.331 227.347H295.823ZM293.474 233.081C291.937 234.522 289.892 235.304 287.173 235.304V238.811C290.619 238.811 293.575 237.794 295.873 235.64L293.474 233.081ZM287.173 235.304C284.016 235.304 281.154 234.345 278.537 232.39L276.438 235.2C279.645 237.595 283.239 238.811 287.173 238.811V235.304ZM279.242 233.795V227.27H275.734V233.795H279.242ZM276.112 228.357C279.136 232.184 282.816 234.29 287.121 234.29V230.783C284.131 230.783 281.389 229.378 278.864 226.183L276.112 228.357ZM287.121 234.29C289.073 234.29 290.828 233.741 292.256 232.544L290.002 229.857C289.306 230.441 288.389 230.783 287.121 230.783V234.29ZM292.258 232.542C293.714 231.318 294.501 229.704 294.501 227.809H290.994C290.994 228.62 290.702 229.268 290 229.858L292.258 232.542ZM294.501 227.809C294.501 224.68 292.248 222.149 288.944 220.102L287.097 223.083C290.095 224.941 290.994 226.555 290.994 227.809H294.501ZM308.49 200.759V199.005H306.736V200.759H308.49ZM328.835 200.759H330.589V199.005H328.835V200.759ZM328.835 205.331V207.085H330.589V205.331H328.835ZM313.627 205.331V203.578H311.874V205.331H313.627ZM313.627 216.275H311.874V218.029H313.627V216.275ZM328.322 216.275H330.075V214.521H328.322V216.275ZM328.322 220.873V222.627H330.075V220.873H328.322ZM313.627 220.873V219.12H311.874V220.873H313.627ZM313.627 232.022H311.874V233.776H313.627V232.022ZM329.323 232.022H331.077V230.269H329.323V232.022ZM329.323 236.595V238.349H331.077V236.595H329.323ZM308.49 236.595H306.736V238.349H308.49V236.595ZM308.49 202.512H328.835V199.005H308.49V202.512ZM327.082 200.759V205.331H330.589V200.759H327.082ZM328.835 203.578H313.627V207.085H328.835V203.578ZM311.874 205.331V216.275H315.381V205.331H311.874ZM313.627 218.029H328.322V214.521H313.627V218.029ZM326.568 216.275V220.873H330.075V216.275H326.568ZM328.322 219.12H313.627V222.627H328.322V219.12ZM311.874 220.873V232.022H315.381V220.873H311.874ZM313.627 233.776H329.323V230.269H313.627V233.776ZM327.57 232.022V236.595H331.077V232.022H327.57ZM329.323 234.841H308.49V238.349H329.323V234.841ZM310.243 236.595V200.759H306.736V236.595H310.243ZM348.945 221.593L349.869 220.102L349.861 220.097L349.853 220.092L348.945 221.593ZM345.04 219.229L344.129 220.727L344.132 220.73L345.04 219.229ZM339.8 214.836L338.367 215.848L338.374 215.857L338.38 215.867L339.8 214.836ZM341.187 202.942L340.017 201.636L340.011 201.641L341.187 202.942ZM357.088 202.814H358.842V201.879L358.066 201.358L357.088 202.814ZM357.088 208.645L355.874 209.91L358.842 212.761V208.645H357.088ZM344.603 206.102L345.623 207.529L345.63 207.524L345.638 207.518L344.603 206.102ZM347.994 215.068L348.884 213.556L348.877 213.552L347.994 215.068ZM351.925 217.38L352.82 215.872L352.814 215.868L351.925 217.38ZM355.598 234.36L354.405 233.075L354.399 233.081L355.598 234.36ZM338.412 233.795H336.659V234.674L337.363 235.2L338.412 233.795ZM338.412 227.27L339.788 226.183L336.659 222.222V227.27H338.412ZM352.053 231.2L353.18 232.544L353.182 232.542L352.053 231.2ZM349.853 220.092L345.948 217.729L344.132 220.73L348.037 223.093L349.853 220.092ZM345.952 217.731C343.594 216.297 342.069 214.976 341.219 213.806L338.38 215.867C339.62 217.574 341.588 219.182 344.129 220.727L345.952 217.731ZM341.232 213.825C340.426 212.683 340.012 211.371 340.012 209.827H336.504C336.504 212.051 337.118 214.079 338.367 215.848L341.232 213.825ZM340.012 209.827C340.012 207.456 340.808 205.648 342.362 204.244L340.011 201.641C337.661 203.764 336.504 206.546 336.504 209.827H340.012ZM342.357 204.249C343.947 202.825 346.055 202.05 348.842 202.05V198.543C345.361 198.543 342.366 199.532 340.017 201.636L342.357 204.249ZM348.842 202.05C351.489 202.05 353.898 202.785 356.111 204.27L358.066 201.358C355.278 199.486 352.189 198.543 348.842 198.543V202.05ZM355.335 202.814V208.645H358.842V202.814H355.335ZM358.303 207.38C355.461 204.651 352.261 203.167 348.739 203.167V206.674C351.177 206.674 353.544 207.673 355.874 209.91L358.303 207.38ZM348.739 203.167C346.785 203.167 345.018 203.628 343.569 204.686L345.638 207.518C346.347 207 347.337 206.674 348.739 206.674V203.167ZM343.584 204.675C342.093 205.74 341.231 207.242 341.231 209.082H344.739C344.739 208.49 344.956 208.005 345.623 207.529L343.584 204.675ZM341.231 209.082C341.231 210.629 341.808 212.027 342.821 213.238L345.512 210.988C344.949 210.316 344.739 209.693 344.739 209.082H341.231ZM342.821 213.238C343.798 214.406 345.272 215.512 347.112 216.583L348.877 213.552C347.188 212.568 346.111 211.705 345.512 210.988L342.821 213.238ZM347.105 216.579L351.036 218.891L352.814 215.868L348.884 213.556L347.105 216.579ZM351.029 218.888C355.042 221.27 356.748 224.091 356.748 227.347H360.255C360.255 222.52 357.576 218.695 352.82 215.872L351.029 218.888ZM356.748 227.347C356.748 229.785 355.949 231.641 354.405 233.075L356.792 235.645C359.118 233.483 360.255 230.663 360.255 227.347H356.748ZM354.399 233.081C352.861 234.522 350.816 235.304 348.097 235.304V238.811C351.543 238.811 354.499 237.794 356.798 235.64L354.399 233.081ZM348.097 235.304C344.94 235.304 342.078 234.345 339.462 232.39L337.363 235.2C340.569 237.595 344.164 238.811 348.097 238.811V235.304ZM340.166 233.795V227.27H336.659V233.795H340.166ZM337.036 228.357C340.06 232.184 343.74 234.29 348.046 234.29V230.783C345.056 230.783 342.313 229.378 339.788 226.183L337.036 228.357ZM348.046 234.29C349.998 234.29 351.753 233.741 353.18 232.544L350.926 229.857C350.23 230.441 349.314 230.783 348.046 230.783V234.29ZM353.182 232.542C354.638 231.318 355.425 229.704 355.425 227.809H351.918C351.918 228.62 351.626 229.268 350.924 229.858L353.182 232.542ZM355.425 227.809C355.425 224.68 353.173 222.149 349.869 220.102L348.021 223.083C351.02 224.941 351.918 226.555 351.918 227.809H355.425ZM380.871 200.553V198.799H379.713L379.259 199.864L380.871 200.553ZM384.494 200.553L386.096 199.84L385.633 198.799H384.494V200.553ZM400.549 236.646V238.4H403.249L402.152 235.934L400.549 236.646ZM395.283 236.646L393.683 237.365L394.148 238.4H395.283V236.646ZM390.505 226.011L392.105 225.292L391.639 224.257H390.505V226.011ZM375.245 226.011V224.257H374.085L373.632 225.325L375.245 226.011ZM370.724 236.646V238.4H371.884L372.338 237.333L370.724 236.646ZM365.458 236.646L363.845 235.958L362.802 238.4H365.458V236.646ZM388.398 221.438V223.192H391.097L390.001 220.726L388.398 221.438ZM382.618 208.44L384.221 207.727L382.559 203.99L380.997 207.77L382.618 208.44ZM377.249 221.438L375.628 220.769L374.627 223.192H377.249V221.438ZM380.871 202.307H384.494V198.799H380.871V202.307ZM382.891 201.266L398.947 237.359L402.152 235.934L386.096 199.84L382.891 201.266ZM400.549 234.893H395.283V238.4H400.549V234.893ZM396.883 235.928L392.105 225.292L388.905 226.73L393.683 237.365L396.883 235.928ZM390.505 224.257H375.245V227.765H390.505V224.257ZM373.632 225.325L369.11 235.96L372.338 237.333L376.859 226.697L373.632 225.325ZM370.724 234.893H365.458V238.4H370.724V234.893ZM367.071 237.335L382.484 201.242L379.259 199.864L363.845 235.958L367.071 237.335ZM390.001 220.726L384.221 207.727L381.016 209.152L386.796 222.151L390.001 220.726ZM380.997 207.77L375.628 220.769L378.87 222.108L384.239 209.109L380.997 207.77ZM377.249 223.192H388.398V219.685H377.249V223.192Z" fill="white"/>
</g>
<path d="M130.673 280.208C131.155 281 131.298 281.934 131.101 283.011C130.904 284.087 130.439 284.91 129.707 285.48C128.966 286.047 128.08 286.237 127.05 286.048L120.592 284.865L120.882 283.278L127.244 284.444C127.833 284.551 128.333 284.467 128.745 284.191C129.159 283.905 129.429 283.417 129.555 282.727C129.682 282.037 129.601 281.49 129.314 281.086C129.028 280.672 128.591 280.411 128.002 280.304L121.641 279.138L121.931 277.551L128.39 278.734C129.42 278.923 130.181 279.414 130.673 280.208Z" fill="black"/>
<path d="M126.985 257.958L127.461 256.417L136.844 259.318L136.471 260.524L128.737 262.979L135.103 264.947L134.627 266.489L125.244 263.588L125.617 262.381L133.351 259.927L126.985 257.958Z" fill="black"/>
<path d="M132.333 243.286L132.964 241.801L142.001 245.647L141.369 247.132L132.333 243.286Z" fill="black"/>
<path d="M148.829 231.377L138.585 229.61L139.44 228.063L147.59 229.586L141.971 223.483L142.819 221.948L149.766 229.682L148.829 231.377Z" fill="black"/>
<path d="M157.823 213.748L160.343 210.204L161.601 211.098L158.145 215.957L150.142 210.265L153.557 205.464L154.815 206.358L152.335 209.845L154.415 211.325L156.692 208.124L157.938 209.01L155.662 212.211L157.823 213.748Z" fill="black"/>
<path d="M173.165 196.935L169.111 196.112L167.844 197.539L170.519 199.915L169.448 201.121L162.105 194.6L164.713 191.663C165.297 191.005 166.021 190.654 166.886 190.61C167.751 190.552 168.512 190.815 169.169 191.398C169.638 191.814 169.947 192.333 170.096 192.953C170.245 193.561 170.214 194.159 170.004 194.748L174.339 195.613L173.165 196.935ZM164.309 194.4L166.764 196.58L168.301 194.849C168.586 194.527 168.71 194.149 168.671 193.714C168.632 193.279 168.441 192.909 168.098 192.605C167.755 192.301 167.366 192.155 166.929 192.167C166.493 192.18 166.132 192.347 165.846 192.669L164.309 194.4Z" fill="black"/>
<path d="M184.827 185.527C184.127 186.161 183.387 186.542 182.606 186.67C181.832 186.791 181.097 186.663 180.4 186.284L180.882 184.749C181.915 185.302 182.888 185.164 183.803 184.334C184.253 183.926 184.51 183.535 184.575 183.16C184.64 182.773 184.544 182.437 184.286 182.153C184.016 181.855 183.69 181.74 183.31 181.808C182.923 181.868 182.336 182.085 181.55 182.457C181.109 182.667 180.741 182.825 180.444 182.929C180.148 183.034 179.806 183.117 179.419 183.178C179.033 183.225 178.671 183.181 178.333 183.045C177.995 182.91 177.679 182.679 177.383 182.353C176.799 181.709 176.566 180.993 176.684 180.204C176.795 179.408 177.173 178.718 177.817 178.133C178.399 177.606 179.037 177.286 179.731 177.174C180.425 177.062 181.116 177.148 181.804 177.434L181.324 178.93C180.404 178.527 179.587 178.65 178.873 179.297C178.527 179.611 178.325 179.946 178.268 180.301C178.205 180.649 178.299 180.961 178.55 181.238C178.795 181.508 179.094 181.629 179.446 181.6C179.799 181.557 180.331 181.371 181.043 181.042C181.402 180.88 181.665 180.767 181.834 180.703C182.003 180.625 182.246 180.531 182.563 180.42C182.886 180.304 183.151 180.24 183.357 180.231C183.562 180.221 183.797 180.229 184.061 180.255C184.331 180.275 184.579 180.353 184.804 180.49C185.029 180.627 185.249 180.813 185.462 181.048C186.059 181.706 186.295 182.446 186.169 183.268C186.043 184.076 185.596 184.829 184.827 185.527Z" fill="black"/>
<path d="M190.649 167.667L191.943 166.704L197.805 174.583L196.511 175.546L190.649 167.667Z" fill="black"/>
<path d="M209.158 155.299L209.954 156.621L207.587 158.047L211.861 165.136L210.479 165.969L206.206 158.88L203.827 160.315L203.03 158.993L209.158 155.299Z" fill="black"/>
<path d="M227.753 145.819L227.141 152.63L228.783 156.168L227.32 156.847L225.678 153.31L220.08 149.381L221.747 148.607L225.754 151.542L226.086 146.593L227.753 145.819Z" fill="black"/>
<path d="M262.308 143.368C261.588 144.556 260.537 145.319 259.156 145.658C257.776 145.996 256.487 145.806 255.29 145.088C254.1 144.359 253.336 143.304 252.998 141.923C252.659 140.543 252.85 139.258 253.57 138.071C254.297 136.872 255.351 136.103 256.732 135.765C258.112 135.426 259.398 135.622 260.588 136.351C261.784 137.069 262.552 138.118 262.89 139.499C263.229 140.88 263.035 142.169 262.308 143.368ZM256.133 143.755C256.945 144.24 257.828 144.365 258.782 144.131C259.736 143.898 260.456 143.379 260.943 142.576C261.437 141.762 261.564 140.864 261.323 139.883C261.083 138.902 260.557 138.169 259.744 137.684C258.939 137.188 258.06 137.057 257.106 137.291C256.152 137.525 255.428 138.049 254.934 138.863C254.447 139.666 254.324 140.558 254.565 141.539C254.805 142.52 255.328 143.259 256.133 143.755Z" fill="black"/>
<path d="M281.248 133.101L277.139 133.603L277.473 136.333L281.442 135.847L281.629 137.379L277.66 137.865L278.144 141.819L276.542 142.015L275.351 132.267L281.06 131.569L281.248 133.101Z" fill="black"/>
<path d="M309.871 138.966L313.864 139.191L313.777 140.732L308.174 140.415L308.727 130.61L310.338 130.701L309.871 138.966Z" fill="black"/>
<path d="M331.222 142.92L330.867 140.856L326.742 140.172L325.741 142.011L324.011 141.724L329.133 132.619L331.043 132.935L332.938 143.204L331.222 142.92ZM327.516 138.764L330.589 139.274L329.778 134.645L327.516 138.764Z" fill="black"/>
<path d="M355.647 143.716L355.455 144.362C355.072 145.653 354.332 146.585 353.236 147.157C352.142 147.72 350.909 147.798 349.537 147.391C348.084 146.96 347.022 146.133 346.351 144.91C345.689 143.689 345.562 142.392 345.969 141.02C346.373 139.657 347.186 138.645 348.406 137.983C349.639 137.314 350.955 137.188 352.353 137.603C353.232 137.863 353.975 138.303 354.581 138.922C355.188 139.541 355.592 140.251 355.793 141.052L354.234 141.424C354.116 140.901 353.85 140.432 353.437 140.017C353.026 139.592 352.516 139.29 351.906 139.109C350.92 138.816 350.013 138.898 349.185 139.355C348.356 139.812 347.799 140.524 347.511 141.493C347.224 142.461 347.304 143.358 347.752 144.184C348.209 145.012 348.957 145.58 349.997 145.889C350.831 146.136 351.565 146.144 352.2 145.913C352.846 145.676 353.338 145.251 353.676 144.639L350.528 143.705L350.939 142.32L355.647 143.716Z" fill="black"/>
<path d="M374.306 155.088C373.01 155.587 371.712 155.548 370.413 154.971C369.113 154.394 368.21 153.456 367.702 152.156C367.207 150.851 367.248 149.549 367.825 148.25C368.402 146.95 369.339 146.051 370.635 145.552C371.943 145.049 373.247 145.085 374.546 145.662C375.846 146.239 376.743 147.18 377.238 148.485C377.746 149.785 377.711 151.084 377.134 152.384C376.557 153.683 375.614 154.585 374.306 155.088ZM369.185 151.617C369.531 152.497 370.153 153.137 371.05 153.535C371.948 153.934 372.835 153.964 373.711 153.627C374.6 153.285 375.249 152.652 375.659 151.729C376.069 150.806 376.101 149.904 375.756 149.024C375.422 148.139 374.806 147.497 373.909 147.098C373.011 146.7 372.118 146.672 371.229 147.014C370.353 147.351 369.71 147.981 369.3 148.905C368.89 149.828 368.851 150.732 369.185 151.617Z" fill="black"/>
<path d="M389.11 164.554C388.298 164.071 387.717 163.475 387.366 162.766C387.023 162.061 386.931 161.32 387.088 160.543L388.698 160.554C388.471 161.704 388.888 162.594 389.949 163.225C390.472 163.536 390.922 163.667 391.298 163.619C391.688 163.568 391.981 163.378 392.177 163.048C392.382 162.702 392.397 162.358 392.221 162.013C392.05 161.661 391.671 161.164 391.085 160.521C390.754 160.161 390.496 159.855 390.309 159.602C390.122 159.35 389.942 159.047 389.771 158.695C389.613 158.34 389.549 157.98 389.579 157.618C389.61 157.255 389.738 156.885 389.962 156.507C390.407 155.76 391.024 155.327 391.813 155.208C392.606 155.082 393.377 155.241 394.124 155.685C394.8 156.087 395.292 156.603 395.603 157.234C395.913 157.865 396.033 158.551 395.962 159.292L394.391 159.272C394.505 158.274 394.149 157.528 393.321 157.036C392.919 156.797 392.54 156.702 392.184 156.751C391.833 156.793 391.562 156.974 391.371 157.296C391.184 157.609 391.156 157.93 391.288 158.259C391.432 158.584 391.765 159.038 392.289 159.621C392.548 159.917 392.734 160.136 392.845 160.279C392.969 160.418 393.13 160.622 393.328 160.893C393.535 161.168 393.673 161.402 393.743 161.596C393.812 161.79 393.873 162.017 393.926 162.276C393.986 162.541 393.984 162.801 393.919 163.056C393.854 163.311 393.74 163.576 393.578 163.849C393.124 164.612 392.485 165.054 391.663 165.175C390.853 165.292 390.002 165.085 389.11 164.554Z" fill="black"/>
<path d="M414.747 183.094C414.037 182.471 413.574 181.779 413.359 181.018C413.15 180.262 413.194 179.517 413.491 178.782L415.071 179.086C414.639 180.175 414.887 181.126 415.815 181.941C416.272 182.341 416.69 182.553 417.069 182.574C417.462 182.595 417.784 182.461 418.037 182.173C418.302 181.871 418.38 181.534 418.269 181.164C418.165 180.786 417.883 180.228 417.424 179.489C417.165 179.075 416.967 178.727 416.829 178.444C416.691 178.162 416.57 177.832 416.466 177.454C416.375 177.076 416.378 176.711 416.474 176.36C416.57 176.009 416.763 175.668 417.053 175.338C417.627 174.684 418.312 174.371 419.109 174.398C419.913 174.418 420.641 174.715 421.295 175.289C421.886 175.807 422.276 176.405 422.466 177.081C422.656 177.758 422.649 178.455 422.444 179.171L420.903 178.864C421.198 177.903 420.983 177.105 420.259 176.47C419.907 176.162 419.552 175.999 419.193 175.983C418.84 175.96 418.541 176.089 418.294 176.37C418.053 176.644 417.968 176.955 418.037 177.302C418.119 177.647 418.364 178.155 418.773 178.824C418.974 179.162 419.116 179.412 419.199 179.572C419.296 179.731 419.417 179.962 419.563 180.264C419.715 180.572 419.808 180.828 419.841 181.031C419.875 181.234 419.893 181.468 419.897 181.733C419.908 182.004 419.859 182.259 419.749 182.498C419.638 182.738 419.478 182.977 419.269 183.216C418.683 183.884 417.974 184.202 417.144 184.17C416.326 184.137 415.528 183.779 414.747 183.094Z" fill="black"/>
<path d="M429.028 197.103C428.034 196.009 427.57 194.775 427.636 193.401C427.709 192.021 428.279 190.847 429.345 189.878C430.411 188.91 431.631 188.458 433.005 188.524C434.386 188.584 435.573 189.161 436.567 190.255C437.165 190.912 437.559 191.66 437.751 192.497C437.948 193.34 437.922 194.16 437.672 194.956L436.127 194.465C436.31 193.944 436.337 193.402 436.205 192.84C436.086 192.278 435.819 191.768 435.404 191.311C434.7 190.536 433.882 190.129 432.95 190.091C432.024 190.06 431.184 190.387 430.43 191.072C429.675 191.758 429.269 192.563 429.211 193.487C429.16 194.418 429.486 195.271 430.191 196.047C430.606 196.504 431.087 196.825 431.634 197.01C432.188 197.189 432.731 197.208 433.26 197.068L433.612 198.644C432.802 198.824 431.983 198.778 431.155 198.507C430.341 198.236 429.631 197.768 429.028 197.103Z" fill="black"/>
<path d="M447.185 203.368L448.142 204.667L440.235 210.492L439.278 209.193L447.185 203.368Z" fill="black"/>
<path d="M449.912 222.079L452.14 225.814L450.815 226.605L447.761 221.484L456.195 216.453L459.213 221.514L457.888 222.305L455.696 218.63L453.503 219.937L455.515 223.311L454.202 224.095L452.19 220.721L449.912 222.079Z" fill="black"/>
<path d="M468.182 239.129L468.846 240.599L459.897 244.643L459.377 243.493L463.543 236.529L457.47 239.274L456.806 237.803L465.755 233.759L466.275 234.91L462.109 241.873L468.182 239.129Z" fill="black"/>
<path d="M465.861 261.251C465.416 259.842 465.511 258.527 466.146 257.307C466.79 256.083 467.798 255.255 469.172 254.821C470.546 254.388 471.843 254.488 473.063 255.123C474.292 255.755 475.129 256.776 475.574 258.185C475.842 259.032 475.887 259.876 475.711 260.716C475.538 261.566 475.171 262.299 474.611 262.917L473.413 261.824C473.798 261.428 474.048 260.947 474.164 260.381C474.291 259.821 474.262 259.247 474.076 258.658C473.76 257.659 473.188 256.947 472.357 256.523C471.53 256.107 470.63 256.053 469.658 256.36C468.685 256.667 467.98 257.228 467.541 258.043C467.105 258.867 467.044 259.779 467.359 260.778C467.545 261.367 467.848 261.86 468.268 262.257C468.696 262.651 469.18 262.896 469.72 262.99L469.38 264.569C468.569 264.393 467.845 264.009 467.206 263.416C466.58 262.829 466.131 262.107 465.861 261.251Z" fill="black"/>
<path d="M471.968 277.813L472.8 282.082L471.285 282.377L470.144 276.525L479.784 274.646L480.911 280.43L479.396 280.725L478.578 276.525L476.072 277.014L476.823 280.869L475.322 281.162L474.57 277.306L471.968 277.813Z" fill="black"/>
<path d="M475.328 322.74L475.039 327.08L473.499 326.977L473.896 321.028L483.695 321.681L483.303 327.56L481.763 327.458L482.048 323.188L479.5 323.018L479.239 326.938L477.713 326.836L477.974 322.916L475.328 322.74Z" fill="black"/>
<path d="M481.038 345.149C480.797 346.475 480.133 347.49 479.044 348.195C477.954 348.909 476.728 349.143 475.366 348.895C474.014 348.649 472.948 347.999 472.17 346.945C471.4 345.902 471.135 344.718 471.376 343.393L472.066 339.597L481.729 341.354L481.038 345.149ZM472.894 343.669C472.729 344.58 472.907 345.377 473.429 346.062C473.949 346.755 474.688 347.189 475.645 347.363C476.611 347.539 477.455 347.393 478.177 346.925C478.907 346.468 479.354 345.784 479.52 344.873L479.922 342.665L473.296 341.46L472.894 343.669Z" fill="black"/>
<path d="M466.593 365.891C466.206 365.048 466.174 364.103 466.496 363.057C466.818 362.012 467.376 361.249 468.169 360.769C468.972 360.292 469.873 360.207 470.875 360.515L477.15 362.446L476.676 363.988L470.494 362.086C469.922 361.91 469.415 361.935 468.974 362.161C468.529 362.396 468.204 362.849 467.998 363.52C467.791 364.19 467.807 364.743 468.045 365.178C468.28 365.623 468.684 365.933 469.256 366.109L475.438 368.011L474.963 369.553L468.688 367.622C467.686 367.314 466.988 366.737 466.593 365.891Z" fill="black"/>
<path d="M459.01 383.224C459.609 381.873 460.55 380.95 461.834 380.455C463.126 379.964 464.43 380.01 465.747 380.594C467.064 381.178 467.97 382.111 468.465 383.395C468.969 384.682 468.921 386.001 468.322 387.352C467.962 388.164 467.438 388.827 466.75 389.341C466.058 389.863 465.298 390.17 464.469 390.263L464.293 388.651C464.844 388.608 465.35 388.413 465.811 388.065C466.277 387.73 466.635 387.28 466.886 386.715C467.31 385.758 467.351 384.845 467.01 383.977C466.664 383.118 466.025 382.482 465.093 382.069C464.161 381.656 463.261 381.61 462.392 381.93C461.52 382.26 460.871 382.903 460.447 383.861C460.197 384.425 460.098 384.995 460.149 385.571C460.21 386.15 460.411 386.654 460.753 387.082L459.454 388.04C458.962 387.372 458.673 386.604 458.587 385.737C458.505 384.883 458.646 384.045 459.01 383.224Z" fill="black"/>
<path d="M448.866 403.027L450.917 403.446L453.052 399.851L451.703 398.25L452.598 396.742L459.222 404.821L458.233 406.486L447.977 404.522L448.866 403.027ZM454.083 401.083L452.492 403.761L457.099 404.686L454.083 401.083Z" fill="black"/>
<path d="M445.03 425.818L443.8 424.885L445.471 422.684L438.878 417.679L439.854 416.394L446.447 421.398L448.126 419.186L449.356 420.119L445.03 425.818Z" fill="black"/>
<path d="M436.504 435.914L435.408 437.099L428.199 430.431L429.294 429.246L436.504 435.914Z" fill="black"/>
<path d="M413.504 446.3C413.599 444.914 414.183 443.754 415.255 442.821C416.327 441.887 417.56 441.465 418.952 441.554C420.344 441.657 421.507 442.245 422.441 443.317C423.374 444.389 423.793 445.618 423.698 447.003C423.601 448.402 423.017 449.568 421.945 450.502C420.872 451.435 419.641 451.851 418.249 451.748C416.856 451.659 415.693 451.078 414.759 450.006C413.826 448.934 413.407 447.698 413.504 446.3ZM418.814 443.126C417.87 443.067 417.028 443.361 416.287 444.006C415.547 444.651 415.144 445.442 415.079 446.378C415.014 447.329 415.313 448.185 415.976 448.946C416.639 449.708 417.443 450.118 418.387 450.177C419.33 450.248 420.172 449.962 420.913 449.317C421.653 448.672 422.056 447.874 422.122 446.924C422.187 445.987 421.887 445.138 421.224 444.376C420.56 443.614 419.757 443.198 418.814 443.126Z" fill="black"/>
<path d="M402.075 465.485L400.737 466.386L395.254 458.238L396.301 457.533L403.863 460.477L400.142 454.948L401.481 454.048L406.964 462.195L405.916 462.9L398.355 459.956L402.075 465.485Z" fill="black"/>
<path d="M369.321 471.858C370.19 471.487 371.014 471.369 371.793 471.504C372.564 471.643 373.217 472.005 373.752 472.59L372.794 473.884C372 473.023 371.034 472.835 369.899 473.32C369.34 473.559 368.969 473.844 368.785 474.177C368.597 474.522 368.578 474.87 368.728 475.223C368.886 475.593 369.156 475.808 369.538 475.869C369.924 475.938 370.549 475.926 371.414 475.831C371.899 475.776 372.299 475.748 372.613 475.746C372.927 475.744 373.277 475.778 373.663 475.847C374.043 475.928 374.371 476.089 374.646 476.327C374.921 476.566 375.144 476.887 375.317 477.292C375.659 478.092 375.645 478.845 375.275 479.552C374.91 480.267 374.327 480.796 373.527 481.137C372.804 481.446 372.097 481.54 371.404 481.418C370.712 481.297 370.087 480.989 369.53 480.495L370.473 479.238C371.212 479.919 372.024 480.071 372.91 479.692C373.34 479.509 373.64 479.259 373.81 478.942C373.983 478.634 373.997 478.308 373.85 477.964C373.706 477.628 373.464 477.417 373.121 477.329C372.774 477.254 372.21 477.255 371.43 477.334C371.038 477.369 370.752 477.39 370.571 477.396C370.386 477.414 370.126 477.423 369.79 477.424C369.446 477.429 369.176 477.402 368.978 477.344C368.78 477.286 368.561 477.201 368.321 477.09C368.071 476.983 367.863 476.828 367.695 476.625C367.527 476.423 367.381 476.175 367.256 475.882C366.907 475.065 366.926 474.289 367.314 473.554C367.697 472.831 368.366 472.266 369.321 471.858Z" fill="black"/>
<path d="M351.768 488.754L351.319 487.277L353.963 486.472L351.551 478.554L353.095 478.084L355.506 486.002L358.164 485.193L358.613 486.669L351.768 488.754Z" fill="black"/>
<path d="M330.941 484.241C331.51 483.508 332.332 483.043 333.409 482.845C334.485 482.646 335.419 482.788 336.212 483.269C337.006 483.76 337.498 484.521 337.688 485.551L338.879 492.008L337.292 492.3L336.119 485.94C336.011 485.351 335.754 484.913 335.349 484.627C334.935 484.342 334.383 484.263 333.694 484.39C333.004 484.517 332.521 484.787 332.245 485.199C331.96 485.613 331.872 486.114 331.98 486.703L333.153 493.063L331.566 493.356L330.376 486.899C330.186 485.869 330.374 484.983 330.941 484.241Z" fill="black"/>
<path d="M313.487 495.469C312.142 495.554 310.997 495.154 310.05 494.268C309.094 493.382 308.572 492.249 308.484 490.867C308.397 489.495 308.771 488.304 309.606 487.295C310.433 486.296 311.518 485.753 312.862 485.668L316.713 485.423L317.337 495.224L313.487 495.469ZM312.96 487.208C312.036 487.267 311.305 487.632 310.767 488.304C310.219 488.976 309.976 489.797 310.038 490.768C310.101 491.748 310.446 492.532 311.074 493.12C311.693 493.718 312.464 493.987 313.389 493.929L315.629 493.786L315.201 487.065L312.96 487.208Z" fill="black"/>
<path d="M294.523 487.493L290.18 487.277L290.256 485.735L296.212 486.032L295.724 495.84L289.838 495.548L289.915 494.006L294.189 494.219L294.316 491.669L290.392 491.473L290.468 489.946L294.392 490.141L294.523 487.493Z" fill="black"/>
<path d="M270.206 493.249L268.614 492.988L270.208 483.297L271.454 483.502L274.941 490.829L276.022 484.253L277.614 484.515L276.021 494.206L274.775 494.001L271.288 486.674L270.206 493.249Z" fill="black"/>
<path d="M248.68 488.209L249.101 486.724L251.76 487.478L254.018 479.515L255.57 479.955L253.312 487.919L255.984 488.677L255.563 490.161L248.68 488.209Z" fill="black"/>
<path d="M221.976 466.88L221.703 468.956L225.44 470.831L226.942 469.372L228.509 470.158L220.919 477.337L219.189 476.469L220.422 466.099L221.976 466.88ZM224.284 471.946L221.5 470.549L220.903 475.21L224.284 471.946Z" fill="black"/>
<path d="M207.048 457.992C207.839 458.509 208.395 459.129 208.716 459.852C209.029 460.57 209.09 461.314 208.901 462.084L207.293 462.006C207.567 460.867 207.188 459.96 206.154 459.285C205.645 458.953 205.201 458.802 204.823 458.835C204.431 458.869 204.131 459.047 203.921 459.369C203.701 459.705 203.672 460.049 203.834 460.401C203.99 460.76 204.348 461.273 204.907 461.939C205.222 462.312 205.467 462.629 205.643 462.889C205.82 463.15 205.986 463.459 206.143 463.819C206.286 464.18 206.335 464.542 206.289 464.903C206.243 465.264 206.1 465.628 205.86 465.996C205.384 466.725 204.75 467.132 203.957 467.217C203.159 467.31 202.395 467.119 201.667 466.643C201.009 466.214 200.539 465.677 200.255 465.034C199.971 464.391 199.88 463.7 199.982 462.963L201.551 463.049C201.395 464.041 201.72 464.801 202.526 465.328C202.918 465.583 203.292 465.694 203.65 465.659C204.003 465.633 204.281 465.463 204.486 465.15C204.685 464.844 204.726 464.525 204.609 464.191C204.479 463.86 204.164 463.392 203.666 462.788C203.419 462.481 203.243 462.255 203.138 462.108C203.02 461.964 202.867 461.752 202.68 461.474C202.486 461.19 202.358 460.95 202.296 460.754C202.234 460.557 202.183 460.328 202.142 460.066C202.092 459.8 202.105 459.54 202.181 459.288C202.256 459.035 202.381 458.776 202.555 458.51C203.041 457.766 203.697 457.351 204.524 457.265C205.337 457.182 206.179 457.425 207.048 457.992Z" fill="black"/>
<path d="M191.999 447.015C192.729 447.614 193.215 448.29 193.456 449.044C193.69 449.791 193.671 450.538 193.4 451.282L191.809 451.031C192.205 449.929 191.925 448.986 190.97 448.204C190.5 447.818 190.075 447.621 189.695 447.613C189.303 447.605 188.985 447.75 188.742 448.046C188.487 448.357 188.421 448.696 188.543 449.063C188.66 449.437 188.961 449.985 189.445 450.708C189.717 451.113 189.927 451.454 190.075 451.732C190.222 452.01 190.354 452.336 190.471 452.71C190.575 453.085 190.584 453.449 190.5 453.803C190.415 454.157 190.234 454.504 189.955 454.845C189.404 455.517 188.729 455.854 187.932 455.853C187.128 455.86 186.39 455.587 185.717 455.036C185.109 454.538 184.699 453.954 184.486 453.284C184.274 452.614 184.258 451.918 184.439 451.195L185.989 451.45C185.727 452.42 185.968 453.21 186.713 453.821C187.075 454.117 187.435 454.267 187.795 454.272C188.148 454.283 188.443 454.144 188.68 453.855C188.912 453.572 188.987 453.259 188.906 452.915C188.812 452.572 188.55 452.073 188.119 451.418C187.907 451.087 187.756 450.843 187.668 450.685C187.566 450.529 187.437 450.303 187.281 450.006C187.118 449.703 187.017 449.451 186.977 449.248C186.937 449.046 186.91 448.813 186.897 448.549C186.877 448.278 186.918 448.021 187.02 447.779C187.122 447.536 187.274 447.292 187.476 447.046C188.039 446.358 188.736 446.016 189.567 446.02C190.385 446.025 191.196 446.357 191.999 447.015Z" fill="black"/>
<path d="M173.718 431.945C175.107 431.972 176.294 432.498 177.279 433.523C178.264 434.548 178.746 435.758 178.726 437.154C178.691 438.549 178.162 439.739 177.137 440.724C176.112 441.709 174.905 442.188 173.517 442.161C172.115 442.133 170.921 441.607 169.936 440.582C168.951 439.557 168.475 438.347 168.509 436.952C168.53 435.557 169.053 434.367 170.078 433.381C171.103 432.396 172.316 431.917 173.718 431.945ZM177.149 437.093C177.161 436.147 176.827 435.32 176.146 434.612C175.466 433.904 174.656 433.541 173.717 433.522C172.765 433.504 171.924 433.844 171.196 434.544C170.468 435.244 170.098 436.067 170.086 437.013C170.061 437.959 170.388 438.785 171.069 439.493C171.75 440.201 172.566 440.565 173.518 440.583C174.457 440.602 175.291 440.261 176.019 439.561C176.747 438.861 177.124 438.038 177.149 437.093Z" fill="black"/>
<path d="M162.755 416.488C163.639 417.672 163.983 418.944 163.786 420.306C163.581 421.673 162.902 422.787 161.748 423.649C160.594 424.511 159.336 424.844 157.975 424.647C156.606 424.455 155.479 423.767 154.595 422.583C154.063 421.872 153.742 421.09 153.631 420.239C153.515 419.38 153.619 418.566 153.945 417.798L155.436 418.435C155.203 418.936 155.125 419.473 155.203 420.045C155.267 420.616 155.484 421.148 155.854 421.643C156.481 422.482 157.256 422.965 158.18 423.093C159.098 423.212 159.966 422.967 160.782 422.357C161.599 421.747 162.08 420.984 162.226 420.07C162.366 419.148 162.123 418.267 161.496 417.428C161.127 416.933 160.678 416.568 160.151 416.331C159.617 416.1 159.079 416.029 158.538 416.118L158.339 414.515C159.163 414.414 159.973 414.538 160.771 414.887C161.556 415.235 162.218 415.768 162.755 416.488Z" fill="black"/>
<path d="M145.28 408.514L144.452 407.13L152.88 402.088L153.708 403.473L145.28 408.514Z" fill="black"/>
<path d="M143.713 384.634L142.211 386.093L143.979 389.882L146.062 389.669L146.804 391.258L136.397 392.181L135.579 390.426L142.977 383.057L143.713 384.634ZM142.38 390.04L141.063 387.217L137.704 390.503L142.38 390.04Z" fill="black"/>
<path d="M127.041 368.628L128.504 368.138L129.382 370.759L137.231 368.129L137.744 369.659L129.895 372.289L130.777 374.923L129.314 375.413L127.041 368.628Z" fill="black"/>
<path d="M123.5 355.897L123.138 354.324L132.709 352.122L133.071 353.695L123.5 355.897Z" fill="black"/>
<path d="M127.873 331.043C128.964 331.902 129.593 333.038 129.761 334.449C129.928 335.861 129.583 337.117 128.725 338.217C127.856 339.31 126.716 339.939 125.304 340.107C123.892 340.275 122.641 339.929 121.55 339.07C120.448 338.202 119.814 337.062 119.646 335.651C119.478 334.239 119.829 332.987 120.698 331.895C121.556 330.794 122.691 330.16 124.103 329.993C125.514 329.825 126.771 330.175 127.873 331.043ZM127.504 337.218C128.084 336.471 128.316 335.61 128.2 334.635C128.084 333.659 127.658 332.881 126.92 332.3C126.172 331.711 125.296 331.476 124.293 331.595C123.29 331.714 122.498 332.147 121.918 332.894C121.328 333.633 121.091 334.49 121.206 335.465C121.322 336.44 121.754 337.223 122.502 337.812C123.24 338.393 124.111 338.624 125.114 338.505C126.117 338.386 126.914 337.957 127.504 337.218Z" fill="black"/>
<path d="M118.456 310.793L118.465 309.18L128.286 309.238L128.279 310.501L121.587 315.091L128.251 315.13L128.242 316.744L118.421 316.686L118.429 315.423L125.12 310.833L118.456 310.793Z" fill="black"/>
<path d="M70.7489 432.814L68.5107 433.746C68.5615 431.942 68.3993 430.589 68.0239 429.687C67.8101 429.173 67.5521 428.8 67.2498 428.566C66.9552 428.336 66.6658 428.28 66.3816 428.399C66.163 428.49 66.0008 428.686 65.895 428.986C65.7893 429.287 65.7569 429.925 65.7979 430.902C65.839 431.879 65.8314 432.677 65.7751 433.297C65.7188 433.917 65.5237 434.511 65.1896 435.08C64.8579 435.654 64.3203 436.095 63.577 436.405C62.5167 436.846 61.5039 436.793 60.5387 436.246C59.5757 435.704 58.8202 434.774 58.2719 433.457C57.6805 432.036 57.4762 430.505 57.659 428.865L60.1268 427.837C59.9315 428.816 59.8391 429.65 59.8498 430.338C59.8604 431.026 60.0034 431.701 60.2786 432.362C60.745 433.483 61.3307 433.896 62.0357 433.603C62.2762 433.503 62.4564 433.296 62.5763 432.984C62.6962 432.671 62.7306 432.022 62.6796 431.036C62.6308 430.056 62.6329 429.26 62.686 428.648C62.7413 428.041 62.936 427.454 63.2701 426.885C63.6064 426.322 64.1544 425.882 64.9141 425.566C65.898 425.157 66.8554 425.223 67.7865 425.765C68.723 426.305 69.4676 427.239 70.0204 428.568C70.5299 429.792 70.7728 431.207 70.7489 432.814Z" fill="white"/>
<path d="M79.8826 446.695L68.9035 452.471L67.4648 449.736L71.9051 447.4L69.0276 441.93L64.5872 444.266L63.1484 441.531L74.1275 435.755L75.5663 438.49L71.1574 440.809L74.0349 446.279L78.4438 443.96L79.8826 446.695Z" fill="white"/>
<path d="M86.382 454.762L79.0494 466.183L77.2228 463.409L78.708 461.208L75.6554 456.573L73.1006 457.15L71.2983 454.413L84.4088 451.765L86.382 454.762ZM80.0146 459.253L82.9428 454.932L77.9144 456.064L80.0146 459.253Z" fill="white"/>
<path d="M90.6218 461.735L94.0848 466.05C94.8704 467.029 95.2109 468.034 95.1062 469.067C95.0016 470.1 94.5614 470.928 93.7858 471.551C92.9825 472.195 92.0648 472.461 91.0328 472.348C90.0045 472.24 89.0957 471.694 88.3064 470.711L86.7666 468.792L82.8815 471.911L80.9471 469.501L90.6218 461.735ZM90.7833 465.568L88.5395 467.369L89.44 468.491C90.2441 469.493 91.0202 469.694 91.7681 469.093C92.1883 468.756 92.3716 468.389 92.3183 467.991C92.2696 467.59 91.9858 467.066 91.467 466.42L90.7833 465.568Z" fill="white"/>
<path d="M100.557 474.575L91.5141 483.068L89.3985 480.815L98.4417 472.322L100.557 474.575Z" fill="white"/>
<path d="M112.499 487.105L104.179 496.307L102.249 494.562L102.494 484.069L97.1638 489.965L94.8714 487.892L103.191 478.69L105.292 480.59L105.121 490.658L110.206 485.032L112.499 487.105Z" fill="white"/>
<path d="M124.458 498.675L122.847 500.852C122.031 499.298 121.016 498.072 119.802 497.174C118.631 496.308 117.511 495.936 116.442 496.058C115.372 496.18 114.499 496.698 113.823 497.611C113.175 498.487 112.967 499.43 113.199 500.441C113.43 501.452 114.062 502.339 115.095 503.103C115.642 503.508 116.28 503.796 117.008 503.967L117.869 502.803L116.427 501.736L117.779 499.909L121.713 502.819L118.697 506.895C118.009 506.998 117.168 506.876 116.172 506.53C115.185 506.182 114.296 505.716 113.506 505.131C111.769 503.846 110.695 502.312 110.285 500.528C109.882 498.742 110.229 497.11 111.324 495.629C112.443 494.116 113.912 493.295 115.73 493.168C117.556 493.038 119.357 493.631 121.132 494.944C122.598 496.028 123.707 497.272 124.458 498.675Z" fill="white"/>
<path d="M146.601 515.016L145.16 516.774L141.684 513.926L135.263 521.764L132.872 519.806L139.294 511.968L135.818 509.12L137.259 507.362L146.601 515.016Z" fill="white"/>
<path d="M153.462 518.872C155.215 520.052 156.278 521.538 156.649 523.329C157.024 525.116 156.739 526.711 155.793 528.116C154.835 529.54 153.453 530.405 151.649 530.711C149.845 531.017 148.081 530.589 146.357 529.429C144.613 528.256 143.544 526.78 143.15 525.001C142.755 523.223 143.041 521.617 144.006 520.183C144.955 518.773 146.327 517.906 148.123 517.58C149.924 517.258 151.704 517.689 153.462 518.872ZM147.795 527.293C148.767 527.947 149.744 528.187 150.725 528.012C151.709 527.833 152.517 527.274 153.148 526.336C153.783 525.393 153.997 524.434 153.789 523.46C153.582 522.485 152.992 521.67 152.019 521.016C151.042 520.358 150.06 520.115 149.074 520.286C148.093 520.461 147.285 521.02 146.651 521.963C146.019 522.901 145.806 523.86 146.01 524.839C146.222 525.817 146.817 526.635 147.795 527.293Z" fill="white"/>
<path d="M164.104 531.71L169.787 529.529L172.161 530.796L166.32 541.741L163.594 540.286L167.24 533.454L162.455 535.309L162.04 535.088L160.917 530.08L157.271 536.912L154.545 535.457L160.386 524.512L162.76 525.779L164.104 531.71Z" fill="white"/>
<path d="M181.108 535.541C183.064 536.34 184.406 537.58 185.133 539.258C185.863 540.932 185.907 542.552 185.266 544.119C184.617 545.708 183.44 546.836 181.735 547.501C180.03 548.166 178.216 548.106 176.293 547.32C174.347 546.524 173.001 545.296 172.254 543.635C171.507 541.973 171.46 540.343 172.115 538.743C172.757 537.17 173.925 536.042 175.618 535.359C177.316 534.678 179.146 534.739 181.108 535.541ZM177.267 544.936C178.352 545.379 179.357 545.416 180.282 545.046C181.21 544.671 181.888 543.959 182.315 542.913C182.746 541.861 182.76 540.878 182.359 539.966C181.958 539.054 181.215 538.376 180.13 537.933C179.04 537.487 178.029 537.448 177.098 537.816C176.173 538.186 175.496 538.897 175.065 539.949C174.638 540.996 174.623 541.978 175.022 542.896C175.428 543.81 176.177 544.49 177.267 544.936Z" fill="white"/>
<path d="M192.028 538.792L197.131 540.952C198.238 541.421 199.001 542.124 199.421 543.06C199.843 543.991 199.861 544.912 199.476 545.822C198.943 547.081 197.894 547.737 196.329 547.788C196.798 548.289 197.047 549.22 197.075 550.582C197.108 551.946 197.149 553.237 197.2 554.454L194.068 553.127C194.042 552.673 194.021 551.819 194.006 550.565C193.995 549.313 193.888 548.467 193.682 548.026C193.482 547.588 193.194 547.289 192.818 547.13L192 546.784L190.037 551.42L187.191 550.215L192.028 538.792ZM193.988 542.09L192.886 544.69L194.391 545.328C194.871 545.531 195.297 545.579 195.67 545.474C196.05 545.365 196.329 545.1 196.507 544.681C196.872 543.819 196.512 543.159 195.427 542.7L193.988 542.09Z" fill="white"/>
<path d="M205.949 545.106L210.979 547.43C212.07 547.935 212.81 548.661 213.2 549.611C213.591 550.555 213.58 551.476 213.165 552.373C212.592 553.615 211.522 554.236 209.957 554.236C210.41 554.752 210.628 555.691 210.611 557.053C210.6 558.418 210.6 559.709 210.611 560.927L207.524 559.5C207.513 559.045 207.52 558.19 207.545 556.937C207.575 555.686 207.494 554.836 207.303 554.389C207.117 553.945 206.839 553.637 206.468 553.466L205.662 553.093L203.55 557.664L200.745 556.367L205.949 545.106ZM207.8 548.466L206.616 551.029L208.099 551.715C208.572 551.933 208.996 551.996 209.372 551.902C209.756 551.806 210.044 551.55 210.235 551.137C210.627 550.287 210.289 549.616 209.219 549.122L207.8 548.466Z" fill="white"/>
<path d="M224.264 553.728C226.257 554.431 227.658 555.603 228.467 557.244C229.278 558.879 229.402 560.495 228.839 562.092C228.268 563.711 227.148 564.895 225.478 565.644C223.808 566.392 221.993 566.421 220.033 565.73C218.051 565.031 216.646 563.871 215.818 562.248C214.99 560.625 214.864 558.999 215.439 557.369C216.003 555.766 217.114 554.582 218.772 553.817C220.434 553.053 222.265 553.024 224.264 553.728ZM220.889 563.301C221.995 563.691 223.001 563.678 223.906 563.263C224.814 562.842 225.456 562.099 225.832 561.032C226.21 559.96 226.176 558.979 225.731 558.087C225.286 557.196 224.51 556.555 223.405 556.166C222.294 555.774 221.282 555.785 220.371 556.198C219.465 556.613 218.823 557.356 218.445 558.428C218.069 559.495 218.103 560.477 218.546 561.374C218.997 562.267 219.778 562.909 220.889 563.301Z" fill="white"/>
<path d="M240.148 562.932L234.578 569.942L233.281 569.641L230.817 556.166L234.009 556.909L235.301 564.248L239.959 558.293L242.381 558.857L243.933 566.256L248.315 560.237L251.506 560.979L243.366 571.987L242.068 571.685L240.148 562.932Z" fill="white"/>
<path d="M254.481 564.53L254.557 563.967C255.186 563.515 255.556 562.878 255.667 562.056C255.682 561.951 255.689 561.85 255.69 561.755C255.106 561.437 254.857 560.958 254.944 560.319C254.999 559.908 255.186 559.587 255.504 559.355C255.822 559.123 256.193 559.036 256.615 559.093C257.143 559.165 257.548 559.414 257.831 559.84C258.12 560.268 258.223 560.784 258.141 561.388C258.023 562.262 257.617 563.008 256.925 563.625C256.238 564.243 255.423 564.544 254.481 564.53Z" fill="white"/>
<path d="M267.36 564.974L267.212 567.394C265.614 566.555 264.328 566.106 263.353 566.046C262.798 566.012 262.349 566.08 262.006 566.249C261.67 566.412 261.493 566.647 261.474 566.955C261.459 567.191 261.564 567.423 261.787 567.65C262.011 567.877 262.57 568.187 263.465 568.58C264.361 568.973 265.074 569.33 265.606 569.654C266.138 569.977 266.586 570.413 266.95 570.963C267.319 571.514 267.48 572.191 267.43 572.995C267.36 574.141 266.867 575.027 265.951 575.653C265.041 576.28 263.874 576.55 262.45 576.463C260.914 576.369 259.449 575.879 258.056 574.993L258.219 572.325C259.012 572.931 259.72 573.381 260.343 573.674C260.965 573.967 261.634 574.135 262.349 574.179C263.561 574.253 264.19 573.909 264.236 573.146C264.252 572.886 264.146 572.634 263.918 572.389C263.689 572.143 263.122 571.827 262.214 571.439C261.312 571.052 260.599 570.7 260.072 570.383C259.552 570.067 259.11 569.633 258.746 569.083C258.388 568.533 258.234 567.848 258.284 567.027C258.349 565.963 258.83 565.132 259.727 564.535C260.624 563.931 261.79 563.673 263.226 563.761C264.55 563.842 265.928 564.246 267.36 564.974Z" fill="white"/>
<path d="M295.104 565.895L295.003 568.317C293.389 567.509 292.095 567.085 291.119 567.044C290.563 567.02 290.115 567.097 289.776 567.272C289.443 567.442 289.27 567.68 289.257 567.988C289.247 568.225 289.356 568.454 289.584 568.677C289.811 568.9 290.377 569.199 291.279 569.575C292.182 569.95 292.902 570.294 293.44 570.607C293.978 570.92 294.435 571.348 294.809 571.891C295.189 572.434 295.362 573.108 295.329 573.912C295.281 575.06 294.805 575.955 293.901 576.599C293.003 577.243 291.841 577.535 290.416 577.475C288.878 577.411 287.404 576.95 285.994 576.091L286.106 573.42C286.911 574.011 287.627 574.447 288.255 574.728C288.883 575.009 289.555 575.164 290.271 575.194C291.484 575.245 292.106 574.889 292.138 574.126C292.149 573.865 292.038 573.615 291.805 573.374C291.572 573.133 290.998 572.828 290.083 572.458C289.174 572.088 288.454 571.75 287.922 571.443C287.395 571.136 286.945 570.712 286.571 570.169C286.202 569.626 286.035 568.943 286.07 568.121C286.114 567.057 286.579 566.217 287.464 565.602C288.349 564.981 289.51 564.701 290.947 564.761C292.272 564.817 293.658 565.195 295.104 565.895Z" fill="white"/>
<path d="M313.762 572.974L313.852 575.681C312.329 576.555 310.718 577.02 309.02 577.076C306.819 577.149 305.044 576.601 303.697 575.431C302.355 574.255 301.654 572.777 301.595 570.996C301.536 569.215 302.172 567.681 303.504 566.393C304.841 565.104 306.62 564.424 308.838 564.35C310.608 564.291 312.117 564.606 313.365 565.293L313.457 568.053C311.926 567.257 310.489 566.881 309.146 566.925C307.826 566.969 306.758 567.36 305.942 568.098C305.131 568.829 304.743 569.743 304.78 570.837C304.816 571.938 305.257 572.832 306.103 573.521C306.956 574.21 308.027 574.533 309.316 574.49C309.955 574.469 310.568 574.365 311.154 574.18C311.74 573.989 312.61 573.587 313.762 572.974Z" fill="white"/>
<path d="M321.217 564.248L322.603 576.576L319.532 576.922L318.146 564.594L321.217 564.248Z" fill="white"/>
<path d="M336.524 571.744L336.643 574.015L327.509 574.494L326.858 562.106L335.868 561.633L335.987 563.903L330.063 564.214L330.2 566.812L335.849 566.515L335.968 568.786L330.319 569.082L330.476 572.062L336.524 571.744Z" fill="white"/>
<path d="M353.147 559.088L354.375 571.433L351.786 571.691L344.177 564.46L344.964 572.369L341.889 572.675L340.661 560.33L343.48 560.05L350.823 566.941L350.072 559.394L353.147 559.088Z" fill="white"/>
<path d="M368.006 556.526L368.521 558.74L364.144 559.759L366.441 569.627L363.431 570.328L361.135 560.459L356.758 561.478L356.243 559.263L368.006 556.526Z" fill="white"/>
<path d="M376.316 554.432L380.051 566.262L377.104 567.192L373.369 555.362L376.316 554.432Z" fill="white"/>
<path d="M390.476 549.406L391.202 551.561L386.034 553.301L386.919 555.927L392.086 554.187L392.812 556.341L387.644 558.081L389.269 562.904L386.34 563.89L382.38 552.133L390.476 549.406Z" fill="white"/>
<path d="M398.908 547.205L402.581 559.055L399.629 559.97L395.956 548.12L398.908 547.205Z" fill="white"/>
<path d="M418.635 548.5L419.485 551.072C418.271 552.34 416.857 553.241 415.244 553.775C413.153 554.466 411.296 554.441 409.673 553.7C408.053 552.951 406.964 551.731 406.404 550.039C405.845 548.347 406.022 546.695 406.935 545.084C407.854 543.47 409.368 542.315 411.476 541.618C413.156 541.062 414.693 540.937 416.085 541.244L416.952 543.866C415.259 543.534 413.774 543.579 412.498 544.001C411.245 544.416 410.33 545.093 409.755 546.031C409.184 546.962 409.07 547.947 409.414 548.987C409.76 550.033 410.436 550.766 411.442 551.188C412.454 551.608 413.573 551.615 414.798 551.21C415.405 551.009 415.964 550.737 416.474 550.394C416.982 550.045 417.702 549.414 418.635 548.5Z" fill="white"/>
<path d="M436.811 525.397L442.068 536.634L439.268 537.943L434.012 526.706L436.811 525.397Z" fill="white"/>
<path d="M452.132 517.027L458.289 527.797L456.03 529.088L446.134 525.59L450.078 532.49L447.395 534.024L441.239 523.254L443.698 521.848L453.213 525.144L449.45 518.56L452.132 517.027Z" fill="white"/>
<path d="M466.001 506.368L473.182 516.484L471.061 517.99L460.87 515.478L465.471 521.959L462.951 523.748L455.769 513.632L458.079 511.992L467.871 514.341L463.481 508.157L466.001 506.368Z" fill="white"/>
<path d="M475.118 499.461C476.713 498.075 478.424 497.435 480.25 497.542C482.072 497.644 483.539 498.335 484.65 499.613C485.776 500.909 486.252 502.467 486.078 504.289C485.904 506.111 485.033 507.703 483.465 509.066C481.878 510.445 480.175 511.093 478.356 511.012C476.536 510.931 475.059 510.238 473.925 508.933C472.811 507.65 472.33 506.1 472.482 504.281C472.639 502.458 473.518 500.851 475.118 499.461ZM481.776 507.122C482.66 506.353 483.146 505.473 483.232 504.48C483.315 503.483 482.985 502.557 482.243 501.704C481.498 500.846 480.627 500.39 479.632 500.338C478.637 500.285 477.697 500.643 476.813 501.411C475.923 502.184 475.433 503.069 475.343 504.066C475.256 505.058 475.586 505.984 476.331 506.842C477.073 507.695 477.943 508.15 478.942 508.208C479.942 508.257 480.886 507.895 481.776 507.122Z" fill="white"/>
<path d="M491.458 484.117L494.764 497.529L493.713 498.361L481.205 492.239L483.843 490.149L490.806 493.662L488.848 486.185L491.458 484.117Z" fill="white"/>
<path d="M499.915 473.36L512.481 478.49L510.086 480.792L507.651 479.732L503.649 483.578L504.682 485.985L502.319 488.255L497.328 475.846L499.915 473.36ZM505.49 478.803L500.709 476.711L502.737 481.449L505.49 478.803Z" fill="white"/>
<path d="M511.691 457.703L513.476 459.11L510.695 462.64L518.654 468.911L516.741 471.338L508.783 465.067L506.002 468.596L504.216 467.189L511.691 457.703Z" fill="white"/>
<path d="M519.094 449.763C520.675 448.361 522.38 447.704 524.207 447.794C526.03 447.878 527.504 448.554 528.627 449.821C529.765 451.106 530.257 452.66 530.101 454.483C529.945 456.307 529.089 457.907 527.534 459.286C525.962 460.68 524.265 461.345 522.445 461.281C520.624 461.218 519.141 460.539 517.994 459.246C516.867 457.974 516.371 456.428 516.506 454.608C516.645 452.784 517.508 451.169 519.094 449.763ZM525.826 457.359C526.703 456.581 527.18 455.695 527.257 454.702C527.33 453.704 526.991 452.782 526.241 451.936C525.487 451.085 524.612 450.638 523.617 450.595C522.621 450.552 521.685 450.919 520.808 451.697C519.926 452.478 519.445 453.367 519.364 454.365C519.287 455.358 519.626 456.28 520.38 457.131C521.13 457.977 522.004 458.424 523.004 458.472C524.004 458.511 524.945 458.14 525.826 457.359Z" fill="white"/>
<path d="M526.782 440.379L530.362 436.15C531.139 435.233 532.036 434.713 533.055 434.59C534.07 434.464 534.954 434.72 535.709 435.359C536.753 436.242 537.066 437.439 536.65 438.948C537.268 438.649 538.231 438.688 539.539 439.067C540.852 439.441 542.096 439.784 543.273 440.098L541.076 442.694C540.634 442.584 539.812 442.35 538.611 441.992C537.413 441.629 536.573 441.481 536.091 441.546C535.613 441.607 535.242 441.793 534.978 442.105L534.404 442.783L538.248 446.036L536.251 448.395L526.782 440.379ZM530.514 439.489L532.669 441.314L533.725 440.067C534.062 439.669 534.235 439.277 534.245 438.889C534.254 438.494 534.084 438.149 533.736 437.854C533.022 437.25 532.285 437.397 531.524 438.297L530.514 439.489Z" fill="white"/>
<path d="M541.505 423.306L543.627 424.477C542.184 425.561 541.227 426.53 540.755 427.385C540.486 427.872 540.354 428.307 540.36 428.689C540.363 429.062 540.5 429.324 540.769 429.472C540.977 429.587 541.231 429.592 541.532 429.487C541.833 429.383 542.353 429.011 543.091 428.37C543.83 427.73 544.46 427.239 544.98 426.897C545.5 426.555 546.086 426.338 546.739 426.245C547.395 426.147 548.075 426.293 548.78 426.682C549.786 427.237 550.375 428.063 550.548 429.159C550.723 430.249 550.466 431.42 549.777 432.669C549.033 434.016 547.962 435.129 546.565 436.008L544.224 434.716C545.112 434.26 545.822 433.813 546.354 433.376C546.886 432.939 547.325 432.407 547.671 431.78C548.257 430.718 548.216 430.002 547.547 429.633C547.319 429.507 547.046 429.494 546.726 429.595C546.407 429.696 545.877 430.074 545.138 430.727C544.401 431.376 543.777 431.869 543.265 432.209C542.756 432.543 542.175 432.757 541.522 432.85C540.872 432.937 540.187 432.782 539.466 432.384C538.533 431.869 537.989 431.079 537.834 430.013C537.673 428.944 537.941 427.779 538.636 426.52C539.276 425.359 540.233 424.287 541.505 423.306Z" fill="white"/>
<defs>
<filter id="filter0_d_1221_3934" x="165.761" y="252.092" width="267.356" height="176.685" filterUnits="userSpaceOnUse" color-interpolation-filters="sRGB">
<feFlood flood-opacity="0" result="BackgroundImageFix"/>
<feColorMatrix in="SourceAlpha" type="matrix" values="0 0 0 0 0 0 0 0 0 0 0 0 0 0 0 0 0 0 127 0" result="hardAlpha"/>
<feOffset dy="3.33243"/>
<feGaussianBlur stdDeviation="3.33243"/>
<feComposite in2="hardAlpha" operator="out"/>
<feColorMatrix type="matrix" values="0 0 0 0 0 0 0 0 0 0 0 0 0 0 0 0 0 0 0.08 0"/>
<feBlend mode="normal" in2="BackgroundImageFix" result="effect1_dropShadow_1221_3934"/>
<feBlend mode="normal" in="SourceGraphic" in2="effect1_dropShadow_1221_3934" result="shape"/>
</filter>
<filter id="filter1_d_1221_3934" x="165.761" y="252.093" width="267.356" height="176.685" filterUnits="userSpaceOnUse" color-interpolation-filters="sRGB">
<feFlood flood-opacity="0" result="BackgroundImageFix"/>
<feColorMatrix in="SourceAlpha" type="matrix" values="0 0 0 0 0 0 0 0 0 0 0 0 0 0 0 0 0 0 127 0" result="hardAlpha"/>
<feOffset dy="3.33243"/>
<feGaussianBlur stdDeviation="3.33243"/>
<feComposite in2="hardAlpha" operator="out"/>
<feColorMatrix type="matrix" values="0 0 0 0 0 0 0 0 0 0 0 0 0 0 0 0 0 0 0.08 0"/>
<feBlend mode="normal" in2="BackgroundImageFix" result="effect1_dropShadow_1221_3934"/>
<feBlend mode="normal" in="SourceGraphic" in2="effect1_dropShadow_1221_3934" result="shape"/>
</filter>
<filter id="filter2_d_1221_3934" x="234.546" y="321.72" width="6.31743" height="12.5928" filterUnits="userSpaceOnUse" color-interpolation-filters="sRGB">
<feFlood flood-opacity="0" result="BackgroundImageFix"/>
<feColorMatrix in="SourceAlpha" type="matrix" values="0 0 0 0 0 0 0 0 0 0 0 0 0 0 0 0 0 0 127 0" result="hardAlpha"/>
<feOffset dx="0.246527"/>
<feGaussianBlur stdDeviation="0.493054"/>
<feComposite in2="hardAlpha" operator="out"/>
<feColorMatrix type="matrix" values="0 0 0 0 0.584314 0 0 0 0 0.219608 0 0 0 0 0.317647 0 0 0 1 0"/>
<feBlend mode="normal" in2="BackgroundImageFix" result="effect1_dropShadow_1221_3934"/>
<feBlend mode="normal" in="SourceGraphic" in2="effect1_dropShadow_1221_3934" result="shape"/>
</filter>
<filter id="filter3_f_1221_3934" x="235.686" y="322.672" width="4.17039" height="10.4568" filterUnits="userSpaceOnUse" color-interpolation-filters="sRGB">
<feFlood flood-opacity="0" result="BackgroundImageFix"/>
<feBlend mode="normal" in="SourceGraphic" in2="BackgroundImageFix" result="shape"/>
<feGaussianBlur stdDeviation="0.295832" result="effect1_foregroundBlur_1221_3934"/>
</filter>
<filter id="filter4_dd_1221_3934" x="226.304" y="338.576" width="6.31645" height="12.5928" filterUnits="userSpaceOnUse" color-interpolation-filters="sRGB">
<feFlood flood-opacity="0" result="BackgroundImageFix"/>
<feColorMatrix in="SourceAlpha" type="matrix" values="0 0 0 0 0 0 0 0 0 0 0 0 0 0 0 0 0 0 127 0" result="hardAlpha"/>
<feOffset dx="0.739581"/>
<feGaussianBlur stdDeviation="0.493054"/>
<feComposite in2="hardAlpha" operator="out"/>
<feColorMatrix type="matrix" values="0 0 0 0 0.180392 0 0 0 0 0.54902 0 0 0 0 1 0 0 0 1 0"/>
<feBlend mode="normal" in2="BackgroundImageFix" result="effect1_dropShadow_1221_3934"/>
<feColorMatrix in="SourceAlpha" type="matrix" values="0 0 0 0 0 0 0 0 0 0 0 0 0 0 0 0 0 0 127 0" result="hardAlpha"/>
<feOffset dx="0.147916"/>
<feGaussianBlur stdDeviation="0.197222"/>
<feComposite in2="hardAlpha" operator="out"/>
<feColorMatrix type="matrix" values="0 0 0 0 0.254902 0 0 0 0 0.458824 0 0 0 0 0.831373 0 0 0 1 0"/>
<feBlend mode="normal" in2="effect1_dropShadow_1221_3934" result="effect2_dropShadow_1221_3934"/>
<feBlend mode="normal" in="SourceGraphic" in2="effect2_dropShadow_1221_3934" result="shape"/>
</filter>
<filter id="filter5_f_1221_3934" x="227.053" y="339.858" width="3.7532" height="10.0288" filterUnits="userSpaceOnUse" color-interpolation-filters="sRGB">
<feFlood flood-opacity="0" result="BackgroundImageFix"/>
<feBlend mode="normal" in="SourceGraphic" in2="BackgroundImageFix" result="shape"/>
<feGaussianBlur stdDeviation="0.246527" result="effect1_foregroundBlur_1221_3934"/>
</filter>
<filter id="filter6_d_1221_3934" x="218.974" y="330.918" width="21.0611" height="12.5476" filterUnits="userSpaceOnUse" color-interpolation-filters="sRGB">
<feFlood flood-opacity="0" result="BackgroundImageFix"/>
<feColorMatrix in="SourceAlpha" type="matrix" values="0 0 0 0 0 0 0 0 0 0 0 0 0 0 0 0 0 0 127 0" result="hardAlpha"/>
<feOffset dx="0.246527"/>
<feGaussianBlur stdDeviation="0.246527"/>
<feComposite in2="hardAlpha" operator="out"/>
<feColorMatrix type="matrix" values="0 0 0 0 0.67451 0 0 0 0 0.223529 0 0 0 0 0.317647 0 0 0 1 0"/>
<feBlend mode="normal" in2="BackgroundImageFix" result="effect1_dropShadow_1221_3934"/>
<feBlend mode="normal" in="SourceGraphic" in2="effect1_dropShadow_1221_3934" result="shape"/>
</filter>
<filter id="filter7_f_1221_3934" x="219.679" y="331.594" width="19.8286" height="11.3137" filterUnits="userSpaceOnUse" color-interpolation-filters="sRGB">
<feFlood flood-opacity="0" result="BackgroundImageFix"/>
<feBlend mode="normal" in="SourceGraphic" in2="BackgroundImageFix" result="shape"/>
<feGaussianBlur stdDeviation="0.320485" result="effect1_foregroundBlur_1221_3934"/>
</filter>
<filter id="filter8_d_1221_3934" x="226.493" y="328.869" width="21.4308" height="10.9894" filterUnits="userSpaceOnUse" color-interpolation-filters="sRGB">
<feFlood flood-opacity="0" result="BackgroundImageFix"/>
<feColorMatrix in="SourceAlpha" type="matrix" values="0 0 0 0 0 0 0 0 0 0 0 0 0 0 0 0 0 0 127 0" result="hardAlpha"/>
<feOffset dx="0.197222" dy="-0.246527"/>
<feGaussianBlur stdDeviation="0.36979"/>
<feComposite in2="hardAlpha" operator="out"/>
<feColorMatrix type="matrix" values="0 0 0 0 0.352941 0 0 0 0 0.419608 0 0 0 0 0.945098 0 0 0 1 0"/>
<feBlend mode="normal" in2="BackgroundImageFix" result="effect1_dropShadow_1221_3934"/>
<feBlend mode="normal" in="SourceGraphic" in2="effect1_dropShadow_1221_3934" result="shape"/>
</filter>
<filter id="filter9_f_1221_3934" x="227.426" y="329.855" width="19.5571" height="9.53172" filterUnits="userSpaceOnUse" color-interpolation-filters="sRGB">
<feFlood flood-opacity="0" result="BackgroundImageFix"/>
<feBlend mode="normal" in="SourceGraphic" in2="BackgroundImageFix" result="shape"/>
<feGaussianBlur stdDeviation="0.295832" result="effect1_foregroundBlur_1221_3934"/>
</filter>
<filter id="filter10_d_1221_3934" x="197.809" y="196.789" width="209.756" height="50.7909" filterUnits="userSpaceOnUse" color-interpolation-filters="sRGB">
<feFlood flood-opacity="0" result="BackgroundImageFix"/>
<feColorMatrix in="SourceAlpha" type="matrix" values="0 0 0 0 0 0 0 0 0 0 0 0 0 0 0 0 0 0 127 0" result="hardAlpha"/>
<feOffset dy="3.50743"/>
<feGaussianBlur stdDeviation="3.50743"/>
<feComposite in2="hardAlpha" operator="out"/>
<feColorMatrix type="matrix" values="0 0 0 0 0 0 0 0 0 0 0 0 0 0 0 0 0 0 0.08 0"/>
<feBlend mode="normal" in2="BackgroundImageFix" result="effect1_dropShadow_1221_3934"/>
<feBlend mode="normal" in="SourceGraphic" in2="effect1_dropShadow_1221_3934" result="shape"/>
</filter>
<clipPath id="clip0_1221_3934">
<rect width="21.037" height="21.037" fill="white" transform="translate(357.445 324.139)"/>
</clipPath>
<clipPath id="clip1_1221_3934">
<rect width="24.5431" height="24.5431" fill="white" transform="translate(287.321 366.212)"/>
</clipPath>
</defs>
</svg>
